<?xml version="1.0" encoding="UTF-8" standalone="no"?>
<!-- Created with Inkscape (http://www.inkscape.org/) -->

<svg
   version="1.1"
   id="svg2"
   width="330.66666"
   height="261.33334"
   viewBox="0 0 330.66666 261.33334"
   xmlns="http://www.w3.org/2000/svg"
   xmlns:svg="http://www.w3.org/2000/svg">
  <defs
     id="defs6">
    <clipPath
       clipPathUnits="userSpaceOnUse"
       id="clipPath16">
      <path
         d="M 0,0 H 248 V 196 H 0 Z"
         id="path14" />
    </clipPath>
    <mask
       maskUnits="userSpaceOnUse"
       x="0"
       y="0"
       width="1"
       height="1"
       id="mask18">
      <g
         id="g26">
        <g
           clip-path="url(#clipPath16)"
           id="g24">
          <g
             id="g22">
            <path
               d="M 0,196 H 248 V 0 H 0 Z"
               style="fill:#000000;fill-opacity:1;fill-rule:nonzero;stroke:none"
               id="path20" />
          </g>
        </g>
      </g>
    </mask>
    <clipPath
       clipPathUnits="userSpaceOnUse"
       id="clipPath34">
      <path
         d="M 0,0 H 248 V 196 H 0 Z"
         id="path32" />
    </clipPath>
  </defs>
  <g
     id="g8"
     transform="matrix(1.3333333,0,0,-1.3333333,0,261.33333)">
    <g
       id="g10">
      <g
         id="g12" />
      <g
         id="g28"
         mask="url(#mask18)">
        <g
           id="g30" />
        <g
           id="g142">
          <g
             clip-path="url(#clipPath34)"
             id="g140">
            <g
               transform="translate(64.4375,0.02124)"
               id="g38">
              <path
                 d="m 55.971039,4.6e-5 c 30.911949,0 55.971041,25.003837 55.971041,55.847629 0,30.843792 -25.059092,55.847635 -55.971041,55.847635 C 25.059088,111.69531 0,86.691467 0,55.847675 0,25.003883 25.059088,4.6e-5 55.971039,4.6e-5 Z"
                 style="fill:#0035bc;fill-opacity:1;fill-rule:nonzero;stroke:none"
                 id="path36" />
            </g>
            <g
               transform="translate(96.651367,36.198242)"
               id="g42">
              <path
                 d="M 51.314754,43.221916 C 52.041649,42.645947 41.58717,28.609369 27.968552,11.884943 25.060966,8.386467 22.281643,5.015934 19.737505,1.901436 L 18.604404,0.557564 17.385801,1.794804 C 6.696146,12.716877 -0.487291,20.844461 0.025813,21.356434 0.538916,21.868406 8.577512,14.615458 19.609234,4.013367 L 17.278898,3.88538 25.381641,13.996807 c 13.618618,16.724426 25.270352,29.801079 25.933113,29.225109 z"
                 style="fill:#b8daff;fill-opacity:1;fill-rule:nonzero;stroke:none"
                 id="path40" />
            </g>
            <g
               transform="translate(190.61816,74.633911)"
               id="g46">
              <path
                 d="M 9.300014,3.719204 C 7.632427,9.585552 0,9.030895 0,9.030895 L 0.213806,4.935089 C 4.617944,5.703047 7.375888,0.540667 7.375888,0.540667 Z"
                 style="fill:#0035bc;fill-opacity:1;fill-rule:nonzero;stroke:none"
                 id="path44" />
            </g>
            <g
               transform="translate(28.499023,62.305908)"
               id="g50">
              <path
                 d="M 9.300014,3.760245 C 7.632427,9.626593 0,9.050648 0,9.050648 L 0.213806,4.976194 C 4.617944,5.72282 7.375888,0.560419 7.375888,0.560419 Z"
                 style="fill:#0035bc;fill-opacity:1;fill-rule:nonzero;stroke:none"
                 id="path48" />
            </g>
            <g
               transform="translate(124.59863,144.52551)"
               id="g54">
              <path
                 d="m 2.501375,2.687815 c 8.851035,-2.687854 14.3669,7.530254 14.3669,7.530254 L 11.48068,13.268555 C 8.851025,7.018228 0,7.74353 0,7.74353 Z"
                 style="fill:#0035bc;fill-opacity:1;fill-rule:nonzero;stroke:none"
                 id="path52" />
            </g>
            <g
               transform="translate(73.288086,130.29724)"
               id="g58">
              <path
                 d="M 4.617906,5.930298 C 0.491699,5.503654 0,0.34128 0,0.34128 L 2.757916,-4.3e-5 c 0,3.0505 3.762747,4.266434 3.762747,4.266434 z"
                 style="fill:#0035bc;fill-opacity:1;fill-rule:nonzero;stroke:none"
                 id="path56" />
            </g>
            <g
               transform="translate(242.67676,96.997437)"
               id="g62">
              <path
                 d="M 5.259325,1.450538 C 5.857945,5.546315 0.983463,7.295532 0.983463,7.295532 L 0,4.714357 C 2.928966,3.967731 3.206897,-3.5e-5 3.206897,-3.5e-5 Z"
                 style="fill:#0035bc;fill-opacity:1;fill-rule:nonzero;stroke:none"
                 id="path60" />
            </g>
            <g
               transform="translate(96.677734,188.70435)"
               id="g66">
              <path
                 d="m 5.28066,1.450594 c 0.62,4.095777 -4.275862,5.84506 -4.275862,5.84506 L 0,4.714414 C 2.950345,3.967788 3.206897,2.1e-5 3.206897,2.1e-5 Z"
                 style="fill:#0035bc;fill-opacity:1;fill-rule:nonzero;stroke:none"
                 id="path64" />
            </g>
            <g
               transform="translate(-0.003906,116.11121)"
               id="g70">
              <path
                 d="M 0.0465,7.978263 C -0.701776,1.578611 7.828568,5.1e-5 7.828568,5.1e-5 L 9.367881,4.266486 C 4.258225,4.714461 3.50997,10.666138 3.50997,10.666138 Z"
                 style="fill:#0035bc;fill-opacity:1;fill-rule:nonzero;stroke:none"
                 id="path68" />
            </g>
            <g
               transform="translate(188.18066,147.08533)"
               id="g74">
              <path
                 d="M 1.624848,0.234702 C 5.751055,4.8e-5 7.076547,5.034441 7.076547,5.034441 L 4.425533,5.802368 C 3.933809,2.794532 0,2.175938 0,2.175938 Z"
                 style="fill:#0035bc;fill-opacity:1;fill-rule:nonzero;stroke:none"
                 id="path72" />
            </g>
            <g
               transform="translate(205.58301,129.99023)"
               id="g78">
              <path
                 d="M 6.841406,0.519917 C 5.735157,0.180858 4.572335,0.064826 3.420703,0.178595 2.269073,0.067089 1.106696,0.183077 0,0.519917 1.111667,0.830967 2.270466,0.93935 3.420703,0.839887 4.570947,0.94172 5.730174,0.833297 6.841406,0.519917 Z"
                 style="fill:#0035bc;fill-opacity:1;fill-rule:nonzero;stroke:none"
                 id="path76" />
            </g>
            <g
               transform="translate(215.67578,132.85706)"
               id="g82">
              <path
                 d="M 0.383959,6.932983 C 0.722847,5.807028 0.839035,4.626043 0.726036,3.455829 0.837878,2.292657 0.721685,1.118895 0.383959,2.7e-5 0.046233,1.118895 -0.069959,2.292657 0.041883,3.455829 -0.071116,4.626043 0.045072,5.807028 0.383959,6.932983 Z"
                 style="fill:#0035bc;fill-opacity:1;fill-rule:nonzero;stroke:none"
                 id="path80" />
            </g>
            <g
               transform="translate(219.99316,130.19983)"
               id="g86">
              <path
                 d="M 0,0.523228 C 1.106696,0.860068 2.269073,0.976056 3.420702,0.864551 4.572332,0.976056 5.734676,0.860068 6.841372,0.523228 5.734676,0.186389 4.572332,0.070401 3.420702,0.181906 2.269073,0.070401 1.106696,0.186389 0,0.523228 Z"
                 style="fill:#0035bc;fill-opacity:1;fill-rule:nonzero;stroke:none"
                 id="path84" />
            </g>
            <g
               transform="translate(215.91016,121.44409)"
               id="g90">
              <path
                 d="M 0.384544,1.8e-5 C 0.046818,1.118886 -0.069374,2.292648 0.042467,3.455819 -0.071588,4.618993 0.044646,5.793183 0.384544,6.911621 0.724441,5.793183 0.840643,4.618993 0.726588,3.455819 0.838429,2.292648 0.72227,1.118886 0.384544,1.8e-5 Z"
                 style="fill:#0035bc;fill-opacity:1;fill-rule:nonzero;stroke:none"
                 id="path88" />
            </g>
            <g
               transform="translate(219.36523,125.19543)"
               id="g94">
              <path
                 d="M 2.466101,0.216767 C 2.316446,0.110106 1.653682,0.664735 0.990924,1.475358 0.328165,2.28598 -0.120794,3.011271 0.028862,3.139264 0.178517,3.267257 0.819901,2.691252 1.504039,1.901962 2.188177,1.112672 2.594377,0.34476 2.466101,0.216767 Z"
                 style="fill:#0035bc;fill-opacity:1;fill-rule:nonzero;stroke:none"
                 id="path92" />
            </g>
            <g
               transform="translate(218.9668,133.17615)"
               id="g98">
              <path
                 d="M 2.544617,2.773518 C 2.672893,2.645525 2.202524,1.962848 1.518386,1.258886 0.834249,0.554924 0.150117,0.106991 0.021841,0.234984 -0.106435,0.362977 0.342522,1.024235 1.048039,1.728197 1.753556,2.432158 2.416341,2.90151 2.544617,2.773518 Z"
                 style="fill:#0035bc;fill-opacity:1;fill-rule:nonzero;stroke:none"
                 id="path96" />
            </g>
            <g
               transform="translate(211.16309,133.02026)"
               id="g102">
              <path
                 d="M 2.416379,0.242111 C 2.288103,0.114118 1.668095,0.434113 1.005337,0.98875 0.342578,1.543386 -0.106369,2.098015 0.021907,2.24734 0.150183,2.396665 0.770158,2.055338 1.432917,1.500701 2.095675,0.946065 2.630172,0.391436 2.416379,0.242111 Z"
                 style="fill:#0035bc;fill-opacity:1;fill-rule:nonzero;stroke:none"
                 id="path100" />
            </g>
            <g
               transform="translate(211.02637,125.88013)"
               id="g106">
              <path
                 d="M 2.338935,2.752832 C 2.467211,2.624839 2.061007,1.963581 1.441007,1.259619 0.821007,0.555657 0.179653,0.107658 0.029998,0.235651 c -0.149656,0.127993 0.277927,0.789296 0.897927,1.471926 0.62,0.682629 1.261354,1.173248 1.41101,1.045255 z"
                 style="fill:#0035bc;fill-opacity:1;fill-rule:nonzero;stroke:none"
                 id="path104" />
            </g>
            <g
               transform="translate(19.348633,148.92664)"
               id="g110">
              <path
                 d="M 6.841406,0.526487 C 5.73471,0.189648 4.572332,0.07366 3.420703,0.185165 2.269071,0.071396 1.106249,0.187428 0,0.526487 1.106249,0.865546 2.269071,0.981579 3.420703,0.86781 4.572332,0.979315 5.73471,0.863327 6.841406,0.526487 Z"
                 style="fill:#0035bc;fill-opacity:1;fill-rule:nonzero;stroke:none"
                 id="path108" />
            </g>
            <g
               transform="translate(29.360352,151.86377)"
               id="g114">
              <path
                 d="M 0.356958,6.932983 C 0.694684,5.814116 0.810876,4.640353 0.699035,3.477182 0.812034,2.306967 0.695846,1.125983 0.356958,2.7e-5 0.044393,1.130954 -0.06418,2.30833 0.036282,3.477182 -0.063451,4.638981 0.04513,5.809207 0.356958,6.932983 Z"
                 style="fill:#0035bc;fill-opacity:1;fill-rule:nonzero;stroke:none"
                 id="path112" />
            </g>
            <g
               transform="translate(33.672852,149.2373)"
               id="g118">
              <path
                 d="M 0,0.493162 C 1.106696,0.830002 2.26904,0.94599 3.42067,0.834485 4.572302,0.948253 5.735123,0.832221 6.841372,0.493162 5.73014,0.179782 4.570914,0.071359 3.42067,0.173193 2.270433,0.073729 1.111666,0.182112 0,0.493162 Z"
                 style="fill:#0035bc;fill-opacity:1;fill-rule:nonzero;stroke:none"
                 id="path116" />
            </g>
            <g
               transform="translate(29.675781,140.45105)"
               id="g122">
              <path
                 d="M 0.383959,2.7e-5 C 0.045072,1.125983 -0.071116,2.306967 0.041883,3.477182 -0.069959,4.640353 0.046233,5.814116 0.383959,6.932983 0.695787,5.809207 0.804369,4.638981 0.704636,3.477182 0.805098,2.30833 0.696525,1.130954 0.383959,2.7e-5 Z"
                 style="fill:#0035bc;fill-opacity:1;fill-rule:nonzero;stroke:none"
                 id="path120" />
            </g>
            <g
               transform="translate(33.114258,144.21863)"
               id="g126">
              <path
                 d="M 2.460794,0.221105 C 2.311138,0.093112 1.669754,0.647785 0.985616,1.458408 0.301478,2.26903 -0.104722,3.015654 0.023554,3.122315 0.151829,3.228976 0.83594,2.695635 1.498699,1.885012 2.161457,1.074389 2.610449,0.327766 2.460794,0.221105 Z"
                 style="fill:#0035bc;fill-opacity:1;fill-rule:nonzero;stroke:none"
                 id="path124" />
            </g>
            <g
               transform="translate(32.709961,152.1842)"
               id="g130">
              <path
                 d="M 2.544584,2.772639 C 2.67286,2.644646 2.223903,1.983388 1.518386,1.279426 0.812869,0.575464 0.150117,0.106177 0.021841,0.23417 -0.106435,0.362163 0.342522,1.044775 1.048039,1.748737 1.753556,2.452698 2.416308,2.900632 2.544584,2.772639 Z"
                 style="fill:#0035bc;fill-opacity:1;fill-rule:nonzero;stroke:none"
                 id="path128" />
            </g>
            <g
               transform="translate(24.99707,152.0415)"
               id="g134">
              <path
                 d="m 2.41082,0.249206 c 0,-0.149325 -0.748284,0.192047 -1.411042,0.725352 C 0.337019,1.507862 -0.090549,2.105155 0.016348,2.233148 0.123244,2.361141 0.764631,2.041146 1.42739,1.486509 2.090149,0.931872 2.581854,0.377199 2.41082,0.249206 Z"
                 style="fill:#0035bc;fill-opacity:1;fill-rule:nonzero;stroke:none"
                 id="path132" />
            </g>
            <g
               transform="translate(24.796875,144.91028)"
               id="g138">
              <path
                 d="M 2.312147,2.730037 C 2.440423,2.602044 2.055599,1.940741 1.41422,1.258112 0.772841,0.575482 0.152854,0.106195 0.024578,0.212856 -0.103698,0.319517 0.281126,1.002172 0.922505,1.706134 1.563884,2.410096 2.183871,2.85803 2.312147,2.730037 Z"
                 style="fill:#0035bc;fill-opacity:1;fill-rule:nonzero;stroke:none"
                 id="path136" />
            </g>
          </g>
        </g>
      </g>
    </g>
  </g>
</svg>
