<svg xmlns="http://www.w3.org/2000/svg" xmlns:xlink="http://www.w3.org/1999/xlink" version="1.1" width="40pt" height="40pt" viewBox="0 0 40 40">
<defs>
<clipPath id="clip_0">
<path transform="matrix(1,0,0,-1,0,40)" d="M40 20C40 8.954306 31.045695 0 20 0 8.954305 0 0 8.954306 0 20 0 31.045697 8.954305 40 20 40 31.045695 40 40 31.045697 40 20Z" fill-rule="evenodd"/>
</clipPath>
</defs>
<path transform="matrix(-0,1,1,0,10.353516,15)" d="M.53033 12.176814C.237437 12.469707-.237437 12.469707-.53033 12.176814-.823223 11.883922-.823223 11.409047-.53033 11.116155L.53033 12.176814ZM5 6.646484 4.46967 6.116154C4.762563 5.823261 5.237437 5.823261 5.53033 6.116154L5 6.646484ZM10.53033 11.116155C10.823223 11.409047 10.823223 11.883922 10.53033 12.176814 10.237437 12.469707 9.762563 12.469707 9.46967 12.176814L10.53033 11.116155ZM-.53033 11.116155 4.46967 6.116154 5.53033 7.176815 .53033 12.176814-.53033 11.116155ZM5.53033 6.116154 10.53033 11.116155 9.46967 12.176814 4.46967 7.176815 5.53033 6.116154Z" fill="#0035bc"/>
<g clip-path="url(#clip_0)">
<path transform="matrix(1,0,0,-1,0,40)" d="M39 20C39 9.50659 30.49341 1 20 1V-1C31.59798-1 41 8.40202 41 20H39ZM20 1C9.50659 1 1 9.50659 1 20H-1C-1 8.40202 8.40202-1 20-1V1ZM1 20C1 30.49341 9.50659 39 20 39V41C8.40202 41-1 31.59798-1 20H1ZM20 39C30.49341 39 39 30.49341 39 20H41C41 31.59798 31.59798 41 20 41V39Z" fill="#0035bc"/>
</g>
</svg>
