<svg xmlns="http://www.w3.org/2000/svg" xmlns:xlink="http://www.w3.org/1999/xlink" version="1.1" width="13.828125pt" height="13.26416pt" viewBox="0 0 13.828125 13.26416">
<path transform="matrix(1,0,0,-1,0,13.26416)" d="M10.145234 8.67709C10.806445 7.921152 11.851407 7.658769 12.761368 7.974941 12.945391 7.357011 13.046914 6.706347 13.046914 6.040058V4.296933H12.567071C12.351758 4.296933 12.187539 4.122871 12.187539 3.907558V.398808C12.187539 .183496 12.351758 .000058 12.567071 .000058H13.828125V4.297401 6.040058C13.828125 6.992871 13.645938 7.917637 13.311797 8.77416 12.970274 9.649004 12.459687 10.452129 11.803555 11.141387 10.499101 12.510176 8.76211 13.26416 6.915742 13.26416 4.028828 13.26416 1.549648 11.398691 .521562 8.758535 .510273 8.730059 .498906 8.70162 .488398 8.672753 .478633 8.65248 .471015 8.631816 .465195 8.610371 .464805 8.610371 .45793 8.609981 .45832 8.609591 .166719 7.81084 0 6.944551 0 6.040097V4.297441 3.907597 .000058H1.261094C1.476406 .000058 1.640625 .183496 1.640625 .398808V3.907558C1.640625 4.122871 1.476406 4.296933 1.261094 4.296933H.78125V6.040097C.78125 6.713379 .885898 7.362519 1.06875 7.973027 1.32332 7.884121 1.590664 7.840879 1.854219 7.840879 2.532578 7.840879 3.20582 8.128613 3.681445 8.673223 4.497422 9.608887 5.675937 10.145332 6.913359 10.145332 8.05875 10.145332 9.135937 9.699316 9.946054 8.889589 10.013866 8.821738 10.081288 8.750019 10.145234 8.67709Z" fill="#0035bc"/>
</svg>
