<svg width="80" height="80" viewBox="0 0 80 80" fill="none" xmlns="http://www.w3.org/2000/svg">
<path d="M40 3.75C30.375 3.75 22.5 11.625 22.5 21.25V31.25C22.5 33.375 24.125 35 26.25 35C28.375 35 30 33.375 30 31.25V21.25C30 15.75 34.5 11.25 40 11.25C45.5 11.25 50 15.75 50 21.25V31.25C50 33.375 51.625 35 53.75 35C55.875 35 57.5 33.375 57.5 31.25V21.25C57.5 11.625 49.625 3.75 40 3.75Z" fill="#B7B7B7"/>
<path d="M53.875 28.75H26.125C16.625 28.75 8.75 36.625 8.75 46.125V56.75C8.75 66.75 16.875 74.875 26.875 74.875H53.75C63.375 75 71.25 67.125 71.25 57.625V46.25C71.25 36.625 63.375 28.75 53.875 28.75ZM63.75 57.625C63.75 63.125 59.25 67.5 53.875 67.5H26.875C21 67.5 16.25 62.75 16.25 56.875V46.25C16.25 40.75 20.75 36.375 26.125 36.375H53.75C59.25 36.375 63.625 40.875 63.625 46.25V57.625H63.75Z" fill="#101010"/>
<path d="M40 51.25C42.7614 51.25 45 49.0114 45 46.25C45 43.4886 42.7614 41.25 40 41.25C37.2386 41.25 35 43.4886 35 46.25C35 49.0114 37.2386 51.25 40 51.25Z" fill="#101010"/>
</svg>
