<svg width="138" height="37" viewBox="0 0 138 37" fill="none" xmlns="http://www.w3.org/2000/svg">
<path d="M0.830664 36V0.999998H7.23066V31H22.7307V36H0.830664ZM41.5959 36.6C38.0959 36.6 35.0292 35.8333 32.3959 34.3C29.7959 32.7667 27.7459 30.65 26.2459 27.95C24.7792 25.2167 24.0459 22.0667 24.0459 18.5C24.0459 14.9333 24.7792 11.8 26.2459 9.1C27.7459 6.36667 29.7959 4.23333 32.3959 2.7C35.0292 1.16667 38.0959 0.399999 41.5959 0.399999C45.0626 0.399999 48.1126 1.16667 50.7459 2.7C53.3792 4.23333 55.4292 6.36667 56.8959 9.1C58.3626 11.8 59.0959 14.9333 59.0959 18.5C59.0959 22.0667 58.3626 25.2167 56.8959 27.95C55.4292 30.65 53.3792 32.7667 50.7459 34.3C48.1126 35.8333 45.0626 36.6 41.5959 36.6ZM41.5959 30.85C44.9292 30.85 47.5792 29.75 49.5459 27.55C51.5459 25.35 52.5459 22.3333 52.5459 18.5C52.5459 14.6667 51.5459 11.65 49.5459 9.45C47.5792 7.25 44.9292 6.15 41.5959 6.15C38.2626 6.15 35.5959 7.25 33.5959 9.45C31.5959 11.65 30.5959 14.6667 30.5959 18.5C30.5959 22.3333 31.5959 25.35 33.5959 27.55C35.5959 29.75 38.2626 30.85 41.5959 30.85ZM80.0467 36.6C76.7467 36.6 73.8633 35.85 71.3967 34.35C68.93 32.85 67.0133 30.7667 65.6467 28.1C64.28 25.4 63.5967 22.2667 63.5967 18.7C63.5967 15.1 64.2967 11.9333 65.6967 9.2C67.13 6.43333 69.1467 4.28333 71.7467 2.75C74.38 1.18333 77.4967 0.399999 81.0967 0.399999C85.1967 0.399999 88.5967 1.38333 91.2967 3.35C93.9967 5.31666 95.7467 8.03333 96.5467 11.5H89.3967C88.8633 9.86667 87.8967 8.6 86.4967 7.7C85.0967 6.76666 83.2967 6.3 81.0967 6.3C77.5967 6.3 74.8967 7.41667 72.9967 9.65C71.0967 11.85 70.1467 14.8833 70.1467 18.75C70.1467 22.6167 71.08 25.6167 72.9467 27.75C74.8467 29.85 77.4133 30.9 80.6467 30.9C83.8133 30.9 86.1967 30.05 87.7967 28.35C89.43 26.6167 90.4133 24.35 90.7467 21.55H81.8967V16.75H97.1967V36H91.2967L90.7967 31.4C89.6633 33.0667 88.2467 34.35 86.5467 35.25C84.8467 36.15 82.68 36.6 80.0467 36.6ZM119.819 36.6C116.319 36.6 113.252 35.8333 110.619 34.3C108.019 32.7667 105.969 30.65 104.469 27.95C103.002 25.2167 102.269 22.0667 102.269 18.5C102.269 14.9333 103.002 11.8 104.469 9.1C105.969 6.36667 108.019 4.23333 110.619 2.7C113.252 1.16667 116.319 0.399999 119.819 0.399999C123.285 0.399999 126.335 1.16667 128.969 2.7C131.602 4.23333 133.652 6.36667 135.119 9.1C136.585 11.8 137.319 14.9333 137.319 18.5C137.319 22.0667 136.585 25.2167 135.119 27.95C133.652 30.65 131.602 32.7667 128.969 34.3C126.335 35.8333 123.285 36.6 119.819 36.6ZM119.819 30.85C123.152 30.85 125.802 29.75 127.769 27.55C129.769 25.35 130.769 22.3333 130.769 18.5C130.769 14.6667 129.769 11.65 127.769 9.45C125.802 7.25 123.152 6.15 119.819 6.15C116.485 6.15 113.819 7.25 111.819 9.45C109.819 11.65 108.819 14.6667 108.819 18.5C108.819 22.3333 109.819 25.35 111.819 27.55C113.819 29.75 116.485 30.85 119.819 30.85Z" fill="#0035BC"/>
</svg>
