<svg xmlns="http://www.w3.org/2000/svg" xmlns:xlink="http://www.w3.org/1999/xlink" version="1.1" width="124pt" height="26pt" viewBox="0 0 124 26">
<path transform="matrix(1,0,0,-1,3,23.5)" d="M5 8.25C4.585786 8.25 4.25 7.914213 4.25 7.5 4.25 7.085787 4.585786 6.75 5 6.75V8.25ZM13 6.75C13.414213 6.75 13.75 7.085787 13.75 7.5 13.75 7.914213 13.414213 8.25 13 8.25V6.75ZM12 14.25C11.585787 14.25 11.25 13.914213 11.25 13.5 11.25 13.085787 11.585787 12.75 12 12.75V14.25ZM12.01 12.75C12.424213 12.75 12.76 13.085787 12.76 13.5 12.76 13.914213 12.424213 14.25 12.01 14.25V12.75ZM6 14.25C5.585786 14.25 5.25 13.914213 5.25 13.5 5.25 13.085787 5.585786 12.75 6 12.75V14.25ZM6.01 12.75C6.424214 12.75 6.76 13.085787 6.76 13.5 6.76 13.914213 6.424214 14.25 6.01 14.25V12.75ZM17.25 10.5C17.25 5.94365 13.55635 2.25 9 2.25V.75C14.384776 .75 18.75 5.115224 18.75 10.5H17.25ZM9 2.25C4.443651 2.25 .75 5.94365 .75 10.5H-.75C-.75 5.115224 3.615223 .75 9 .75V2.25ZM.75 10.5C.75 15.056349 4.443651 18.75 9 18.75V20.25C3.615223 20.25-.75 15.884777-.75 10.5H.75ZM9 18.75C13.55635 18.75 17.25 15.056349 17.25 10.5H18.75C18.75 15.884777 14.384776 20.25 9 20.25V18.75ZM5 6.75H13V8.25H5V6.75ZM12 12.75H12.01V14.25H12V12.75ZM6 12.75H6.01V14.25H6V12.75Z" fill="#0035bc"/>
<path transform="matrix(1,0,0,-1,32,14.639999)" d="M0-5.360001ZM1.42-5.360001V8.64H3.92L8.660001-.68 13.380001 8.64H15.880001V-5.360001H13.76V4.98L9.48-3.360001H7.84L3.54 4.96V-5.360001H1.42ZM17.304688-5.360001ZM23.284687-5.6C22.33802-5.6 21.484688-5.386667 20.724688-4.960001 19.97802-4.52 19.384688-3.913334 18.944687-3.140001 18.504687-2.353334 18.284687-1.440001 18.284687-.400001 18.284687 .639999 18.504687 1.546666 18.944687 2.32 19.39802 3.106667 20.004689 3.713333 20.764689 4.139999 21.524689 4.579999 22.371356 4.799999 23.304688 4.799999 24.251355 4.799999 25.09802 4.579999 25.844689 4.139999 26.604689 3.713333 27.204688 3.106667 27.644688 2.32 28.09802 1.546666 28.324688 .639999 28.324688-.400001 28.324688-1.440001 28.09802-2.353334 27.644688-3.140001 27.204688-3.913334 26.604689-4.52 25.844689-4.960001 25.084689-5.386667 24.231354-5.6 23.284687-5.6ZM23.284687-3.780001C23.791354-3.780001 24.25802-3.653334 24.684689-3.4 25.12469-3.146667 25.478022-2.773335 25.744688-2.280001 26.011355-1.773335 26.144688-1.146667 26.144688-.400001 26.144688 .346666 26.011355 .966666 25.744688 1.46 25.491356 1.966666 25.144688 2.346666 24.704688 2.6 24.27802 2.853333 23.811354 2.98 23.304688 2.98 22.798022 2.98 22.324688 2.853333 21.884688 2.6 21.458022 2.346666 21.111355 1.966666 20.844689 1.46 20.57802 .966666 20.444687 .346666 20.444687-.400001 20.444687-1.146667 20.57802-1.773335 20.844689-2.280001 21.111355-2.773335 21.458022-3.146667 21.884688-3.4 22.311354-3.653334 22.77802-3.780001 23.284687-3.780001ZM29.277344-5.360001ZM35.137346-5.6C34.177347-5.6 33.330678-5.373333 32.597345-4.92 31.86401-4.466667 31.290677-3.846666 30.877345-3.060001 30.46401-2.273335 30.257344-1.380001 30.257344-.38 30.257344 .619999 30.46401 1.506666 30.877345 2.28 31.290677 3.066667 31.86401 3.68 32.597345 4.12 33.34401 4.573333 34.197343 4.799999 35.157346 4.799999 35.94401 4.799999 36.630678 4.646667 37.217344 4.34 37.817346 4.033333 38.28401 3.599999 38.617345 3.04V9.04H40.737344V-5.360001H38.837347L38.617345-3.82C38.297346-4.286667 37.857347-4.700001 37.297346-5.060001 36.737344-5.42 36.017347-5.6 35.137346-5.6ZM35.517347-3.76C36.42401-3.76 37.164014-3.446667 37.737344-2.82 38.32401-2.193335 38.617345-1.386667 38.617345-.400001 38.617345 .599999 38.32401 1.406666 37.737344 2.02 37.164014 2.646666 36.42401 2.959999 35.517347 2.959999 34.61068 2.959999 33.86401 2.646666 33.277345 2.02 32.690679 1.406666 32.397344 .599999 32.397344-.400001 32.397344-1.053334 32.530679-1.633333 32.797346-2.139999 33.06401-2.646666 33.43068-3.046667 33.897344-3.34 34.377344-3.620001 34.917345-3.76 35.517347-3.76ZM42.070314-5.360001ZM48.050313-5.6C47.07698-5.6 46.21031-5.386667 45.450315-4.960001 44.703645-4.52 44.116979-3.913334 43.69031-3.140001 43.263647-2.366667 43.050313-1.466667 43.050313-.440001 43.050313 .599999 43.256978 1.513332 43.67031 2.299999 44.09698 3.086666 44.683649 3.7 45.430315 4.139999 46.19031 4.579999 47.070314 4.799999 48.070314 4.799999 49.043645 4.799999 49.890314 4.579999 50.610315 4.139999 51.33031 3.713333 51.890314 3.14 52.290315 2.42 52.69031 1.7 52.890314 .906666 52.890314 .04 52.890314-.093333 52.883646-.24 52.87031-.400001 52.87031-.546667 52.863645-.713333 52.85031-.900001H45.130315C45.19698-1.860001 45.51031-2.593334 46.070314-3.1 46.643648-3.593334 47.303647-3.84 48.050313-3.84 48.650316-3.84 49.150316-3.706667 49.550313-3.440001 49.963647-3.16 50.270315-2.786667 50.470315-2.32H52.590314C52.323648-3.253334 51.790315-4.033335 50.990316-4.66 50.203649-5.286667 49.223649-5.6 48.050313-5.6ZM48.050313 3.06C47.343648 3.06 46.71698 2.846667 46.17031 2.42 45.623647 2.006666 45.29031 1.379999 45.17031 .54H50.770315C50.730314 1.313334 50.456979 1.926666 49.950315 2.38 49.443647 2.833334 48.81031 3.06 48.050313 3.06ZM53.75-5.360001ZM55.09-5.360001V4.559999H56.99L57.17 2.679999C57.516668 3.333333 57.996667 3.846666 58.61 4.22 59.236669 4.606667 59.989999 4.799999 60.87 4.799999V2.58H60.29C59.703336 2.58 59.176668 2.48 58.71 2.28 58.256666 2.093333 57.89 1.766666 57.61 1.299999 57.343336 .846666 57.21 .213333 57.21-.6V-5.360001H55.09ZM61.347658-5.360001ZM66.04765-5.6C65.20766-5.6 64.51433-5.460001 63.967657-5.18 63.42099-4.9 63.014326-4.533333 62.747659-4.08 62.48099-3.613335 62.347658-3.106668 62.347658-2.560001 62.347658-1.6 62.72099-.840001 63.467657-.280001 64.214328 .28 65.28099 .559999 66.667659 .559999H69.267658V.74C69.267658 1.513333 69.05432 2.093333 68.627658 2.48 68.214328 2.866667 67.674327 3.06 67.00766 3.06 66.42099 3.06 65.90765 2.913334 65.46766 2.62 65.04099 2.34 64.78099 1.92 64.68766 1.36H62.567659C62.634325 2.08 62.87432 2.693333 63.287656 3.2 63.714326 3.719999 64.24766 4.113333 64.88766 4.38 65.540988 4.66 66.25432 4.799999 67.02766 4.799999 68.41432 4.799999 69.487659 4.433332 70.24766 3.7 71.00766 2.98 71.38766 1.993333 71.38766 .74V-5.360001H69.54765L69.36766-3.66C69.087657-4.206667 68.68099-4.666668 68.14766-5.040001 67.61433-5.413334 66.91432-5.6 66.04765-5.6ZM66.46766-3.880001C67.04099-3.880001 67.52099-3.746668 67.90765-3.480001 68.307659-3.200001 68.61433-2.833334 68.82766-2.380001 69.05432-1.926668 69.19432-1.426666 69.24766-.88H66.88766C66.04765-.88 65.447658-1.026667 65.087657-1.320001 64.74099-1.613335 64.56766-1.98 64.56766-2.42 64.56766-2.873333 64.73432-3.233334 65.06766-3.5 65.41432-3.753334 65.88099-3.880001 66.46766-3.880001ZM72.32422-5.360001ZM77.82422-5.360001C76.85088-5.360001 76.07755-5.126667 75.50422-4.66 74.930889-4.18 74.64422-3.333334 74.64422-2.120001V2.78H72.94422V4.559999H74.64422L74.90422 7.08H76.76422V4.559999H79.56422V2.78H76.76422V-2.120001C76.76422-2.666668 76.877559-3.046667 77.10422-3.26 77.344219-3.460001 77.750888-3.560001 78.32422-3.560001H79.46422V-5.360001H77.82422ZM80.15625-5.360001ZM86.13625-5.6C85.16292-5.6 84.29625-5.386667 83.53625-4.960001 82.78958-4.52 82.20292-3.913334 81.77625-3.140001 81.34959-2.366667 81.13625-1.466667 81.13625-.440001 81.13625 .599999 81.34292 1.513332 81.75625 2.299999 82.182918 3.086666 82.769588 3.7 83.51625 4.139999 84.27625 4.579999 85.15625 4.799999 86.15625 4.799999 87.129589 4.799999 87.97625 4.579999 88.69625 4.139999 89.41625 3.713333 89.97625 3.14 90.37625 2.42 90.77625 1.7 90.97625 .906666 90.97625 .04 90.97625-.093333 90.96958-.24 90.95625-.400001 90.95625-.546667 90.949588-.713333 90.93625-.900001H83.21625C83.28292-1.860001 83.59625-2.593334 84.15625-3.1 84.72958-3.593334 85.38959-3.84 86.13625-3.84 86.73625-3.84 87.23625-3.706667 87.63625-3.440001 88.04958-3.16 88.35625-2.786667 88.55625-2.32H90.676258C90.409587-3.253334 89.87625-4.033335 89.07625-4.66 88.28958-5.286667 87.309589-5.6 86.13625-5.6ZM86.13625 3.06C85.42958 3.06 84.80292 2.846667 84.25625 2.42 83.70958 2.006666 83.37625 1.379999 83.25625 .54H88.85625C88.816249 1.313334 88.542919 1.926666 88.03625 2.38 87.52959 2.833334 86.896259 3.06 86.13625 3.06Z" fill="#0035bc"/>
<text xml:space="preserve" transform="matrix(1 0 -0 1 32 14.639999)" font-size="20" font-family="Unnamed"><tspan y="5.360001" x="0 17.300002 29.280003 42.08 53.760004 61.36 72.33656 80.168598">Moderate</tspan></text>
</svg>
