<svg width="375" height="84" viewBox="0 0 375 84" fill="none" xmlns="http://www.w3.org/2000/svg">
<g filter="url(#filter0_bd_3233_25073)">
<rect width="375" height="83" transform="translate(0 1)" fill="#FBFBFB"/>
<path d="M40.8066 45.8662V38.8662H42.0866V41.7762H45.2266V38.8662H46.5066V45.8662H45.2266V42.8162H42.0866V45.8662H40.8066ZM49.9771 45.9862C49.4971 45.9862 49.0638 45.8762 48.6771 45.6562C48.2971 45.4362 47.9938 45.1329 47.7671 44.7462C47.5471 44.3529 47.4371 43.8995 47.4371 43.3862C47.4371 42.8729 47.5505 42.4229 47.7771 42.0362C48.0038 41.6429 48.3071 41.3362 48.6871 41.1162C49.0738 40.8962 49.5071 40.7862 49.9871 40.7862C50.4605 40.7862 50.8871 40.8962 51.2671 41.1162C51.6538 41.3362 51.9571 41.6429 52.1771 42.0362C52.4038 42.4229 52.5171 42.8729 52.5171 43.3862C52.5171 43.8995 52.4038 44.3529 52.1771 44.7462C51.9571 45.1329 51.6538 45.4362 51.2671 45.6562C50.8805 45.8762 50.4505 45.9862 49.9771 45.9862ZM49.9771 44.8762C50.3105 44.8762 50.6005 44.7529 50.8471 44.5062C51.0938 44.2529 51.2171 43.8795 51.2171 43.3862C51.2171 42.8929 51.0938 42.5229 50.8471 42.2762C50.6005 42.0229 50.3138 41.8962 49.9871 41.8962C49.6471 41.8962 49.3538 42.0229 49.1071 42.2762C48.8671 42.5229 48.7471 42.8929 48.7471 43.3862C48.7471 43.8795 48.8671 44.2529 49.1071 44.5062C49.3538 44.7529 49.6438 44.8762 49.9771 44.8762ZM53.4216 45.8662V40.9062H54.5516L54.6616 41.5762C54.8216 41.3362 55.0316 41.1462 55.2916 41.0062C55.5583 40.8595 55.8649 40.7862 56.2116 40.7862C56.9783 40.7862 57.5216 41.0829 57.8416 41.6762C58.0216 41.4029 58.2616 41.1862 58.5616 41.0262C58.8683 40.8662 59.2016 40.7862 59.5616 40.7862C60.2083 40.7862 60.7049 40.9795 61.0516 41.3662C61.3983 41.7529 61.5716 42.3195 61.5716 43.0662V45.8662H60.2916V43.1862C60.2916 42.7595 60.2083 42.4329 60.0416 42.2062C59.8816 41.9795 59.6316 41.8662 59.2916 41.8662C58.9449 41.8662 58.6649 41.9929 58.4516 42.2462C58.2449 42.4995 58.1416 42.8529 58.1416 43.3062V45.8662H56.8616V43.1862C56.8616 42.7595 56.7783 42.4329 56.6116 42.2062C56.4449 41.9795 56.1883 41.8662 55.8416 41.8662C55.5016 41.8662 55.2249 41.9929 55.0116 42.2462C54.8049 42.4995 54.7016 42.8529 54.7016 43.3062V45.8662H53.4216ZM64.9568 45.9862C64.4568 45.9862 64.0135 45.8795 63.6268 45.6662C63.2402 45.4529 62.9368 45.1529 62.7168 44.7662C62.4968 44.3795 62.3868 43.9329 62.3868 43.4262C62.3868 42.9129 62.4935 42.4562 62.7068 42.0562C62.9268 41.6562 63.2268 41.3462 63.6068 41.1262C63.9935 40.8995 64.4468 40.7862 64.9668 40.7862C65.4535 40.7862 65.8835 40.8929 66.2568 41.1062C66.6302 41.3195 66.9202 41.6129 67.1268 41.9862C67.3402 42.3529 67.4468 42.7629 67.4468 43.2162C67.4468 43.2895 67.4435 43.3662 67.4368 43.4462C67.4368 43.5262 67.4335 43.6095 67.4268 43.6962H63.6568C63.6835 44.0829 63.8168 44.3862 64.0568 44.6062C64.3035 44.8262 64.6002 44.9362 64.9468 44.9362C65.2068 44.9362 65.4235 44.8795 65.5968 44.7662C65.7768 44.6462 65.9102 44.4929 65.9968 44.3062H67.2968C67.2035 44.6195 67.0468 44.9062 66.8268 45.1662C66.6135 45.4195 66.3468 45.6195 66.0268 45.7662C65.7135 45.9129 65.3568 45.9862 64.9568 45.9862ZM64.9668 41.8262C64.6535 41.8262 64.3768 41.9162 64.1368 42.0962C63.8968 42.2695 63.7435 42.5362 63.6768 42.8962H66.1468C66.1268 42.5695 66.0068 42.3095 65.7868 42.1162C65.5668 41.9229 65.2935 41.8262 64.9668 41.8262Z" fill="#0B6FAA"/>
<path d="M63.4628 17.699C63.4623 17.6986 63.4618 17.6981 63.4614 17.6977L55.3021 9.53955C54.9544 9.19165 54.492 9 54.0001 9C53.5083 9 53.0459 9.1915 52.698 9.5394L44.543 17.6934C44.5402 17.6961 44.5375 17.699 44.5347 17.7018C43.8206 18.42 43.8218 19.5853 44.5383 20.3017C44.8656 20.6292 45.2979 20.8188 45.7601 20.8387C45.7789 20.8405 45.7978 20.8414 45.8169 20.8414H46.1421V26.8453C46.1421 28.0334 47.1089 29 48.2973 29H51.4895C51.813 29 52.0755 28.7377 52.0755 28.4141V23.707C52.0755 23.1649 52.5165 22.7239 53.0587 22.7239H54.9415C55.4837 22.7239 55.9248 23.1649 55.9248 23.707V28.4141C55.9248 28.7377 56.1871 29 56.5108 29H59.7029C60.8914 29 61.8581 28.0334 61.8581 26.8453V20.8414H62.1597C62.6514 20.8414 63.1138 20.6499 63.4618 20.302C64.1791 19.5844 64.1794 18.4171 63.4628 17.699Z" fill="#0B6FAA"/>
<path d="M121.207 45.8662V38.8662H123.357C124.59 38.8662 125.497 39.1795 126.077 39.8062C126.663 40.4329 126.957 41.2929 126.957 42.3862C126.957 43.4595 126.663 44.3095 126.077 44.9362C125.497 45.5562 124.59 45.8662 123.357 45.8662H121.207ZM122.047 45.1662H123.337C124.017 45.1662 124.557 45.0562 124.957 44.8362C125.363 44.6095 125.653 44.2895 125.827 43.8762C126 43.4562 126.087 42.9595 126.087 42.3862C126.087 41.7995 126 41.2962 125.827 40.8762C125.653 40.4562 125.363 40.1329 124.957 39.9062C124.557 39.6795 124.017 39.5662 123.337 39.5662H122.047V45.1662ZM128.39 39.8062C128.223 39.8062 128.083 39.7529 127.97 39.6462C127.863 39.5329 127.81 39.3929 127.81 39.2262C127.81 39.0662 127.863 38.9329 127.97 38.8262C128.083 38.7195 128.223 38.6662 128.39 38.6662C128.55 38.6662 128.686 38.7195 128.8 38.8262C128.913 38.9329 128.97 39.0662 128.97 39.2262C128.97 39.3929 128.913 39.5329 128.8 39.6462C128.686 39.7529 128.55 39.8062 128.39 39.8062ZM127.97 45.8662V40.9062H128.81V45.8662H127.97ZM132.262 45.9862C131.789 45.9862 131.369 45.8795 131.002 45.6662C130.636 45.4462 130.346 45.1429 130.132 44.7562C129.926 44.3695 129.822 43.9129 129.822 43.3862C129.822 42.8662 129.926 42.4129 130.132 42.0262C130.339 41.6329 130.626 41.3295 130.992 41.1162C131.366 40.8962 131.796 40.7862 132.282 40.7862C132.762 40.7862 133.176 40.8962 133.522 41.1162C133.876 41.3295 134.146 41.6129 134.332 41.9662C134.519 42.3195 134.612 42.6995 134.612 43.1062C134.612 43.1795 134.609 43.2529 134.602 43.3262C134.602 43.3995 134.602 43.4829 134.602 43.5762H130.652C130.672 43.9562 130.759 44.2729 130.912 44.5262C131.072 44.7729 131.269 44.9595 131.502 45.0862C131.742 45.2129 131.996 45.2762 132.262 45.2762C132.609 45.2762 132.899 45.1962 133.132 45.0362C133.366 44.8762 133.536 44.6595 133.642 44.3862H134.472C134.339 44.8462 134.082 45.2295 133.702 45.5362C133.329 45.8362 132.849 45.9862 132.262 45.9862ZM132.262 41.4962C131.862 41.4962 131.506 41.6195 131.192 41.8662C130.886 42.1062 130.709 42.4595 130.662 42.9262H133.782C133.762 42.4795 133.609 42.1295 133.322 41.8762C133.036 41.6229 132.682 41.4962 132.262 41.4962ZM137.28 45.8662C136.826 45.8662 136.47 45.7562 136.21 45.5362C135.95 45.3162 135.82 44.9195 135.82 44.3462V41.6162H134.96V40.9062H135.82L135.93 39.7162H136.66V40.9062H138.12V41.6162H136.66V44.3462C136.66 44.6595 136.723 44.8729 136.85 44.9862C136.976 45.0929 137.2 45.1462 137.52 45.1462H138.04V45.8662H137.28ZM144.473 45.9862C143.787 45.9862 143.193 45.8362 142.693 45.5362C142.2 45.2295 141.817 44.8062 141.543 44.2662C141.27 43.7195 141.133 43.0862 141.133 42.3662C141.133 41.6529 141.27 41.0262 141.543 40.4862C141.817 39.9395 142.2 39.5129 142.693 39.2062C143.193 38.8995 143.787 38.7462 144.473 38.7462C145.273 38.7462 145.923 38.9395 146.423 39.3262C146.93 39.7062 147.253 40.2395 147.393 40.9262H146.463C146.357 40.4929 146.137 40.1462 145.803 39.8862C145.477 39.6195 145.033 39.4862 144.473 39.4862C143.973 39.4862 143.537 39.6029 143.163 39.8362C142.79 40.0629 142.5 40.3929 142.293 40.8262C142.093 41.2529 141.993 41.7662 141.993 42.3662C141.993 42.9662 142.093 43.4829 142.293 43.9162C142.5 44.3429 142.79 44.6729 143.163 44.9062C143.537 45.1329 143.973 45.2462 144.473 45.2462C145.033 45.2462 145.477 45.1195 145.803 44.8662C146.137 44.6062 146.357 44.2629 146.463 43.8362H147.393C147.253 44.5095 146.93 45.0362 146.423 45.4162C145.923 45.7962 145.273 45.9862 144.473 45.9862ZM148.31 45.8662V38.6662H149.15V41.7562C149.317 41.4495 149.554 41.2129 149.86 41.0462C150.167 40.8729 150.5 40.7862 150.86 40.7862C151.434 40.7862 151.894 40.9662 152.24 41.3262C152.587 41.6795 152.76 42.2262 152.76 42.9662V45.8662H151.93V43.0562C151.93 42.0229 151.514 41.5062 150.68 41.5062C150.247 41.5062 149.884 41.6629 149.59 41.9762C149.297 42.2829 149.15 42.7229 149.15 43.2962V45.8662H148.31ZM155.443 45.9862C155.03 45.9862 154.686 45.9162 154.413 45.7762C154.14 45.6362 153.936 45.4495 153.803 45.2162C153.67 44.9829 153.603 44.7295 153.603 44.4562C153.603 43.9495 153.796 43.5595 154.183 43.2862C154.57 43.0129 155.096 42.8762 155.763 42.8762H157.103V42.8162C157.103 42.3829 156.99 42.0562 156.763 41.8362C156.536 41.6095 156.233 41.4962 155.853 41.4962C155.526 41.4962 155.243 41.5795 155.003 41.7462C154.77 41.9062 154.623 42.1429 154.563 42.4562H153.703C153.736 42.0962 153.856 41.7929 154.063 41.5462C154.276 41.2995 154.54 41.1129 154.853 40.9862C155.166 40.8529 155.5 40.7862 155.853 40.7862C156.546 40.7862 157.066 40.9729 157.413 41.3462C157.766 41.7129 157.943 42.2029 157.943 42.8162V45.8662H157.193L157.143 44.9762C157.003 45.2562 156.796 45.4962 156.523 45.6962C156.256 45.8895 155.896 45.9862 155.443 45.9862ZM155.573 45.2762C155.893 45.2762 156.166 45.1929 156.393 45.0262C156.626 44.8595 156.803 44.6429 156.923 44.3762C157.043 44.1095 157.103 43.8295 157.103 43.5362V43.5262H155.833C155.34 43.5262 154.99 43.6129 154.783 43.7862C154.583 43.9529 154.483 44.1629 154.483 44.4162C154.483 44.6762 154.576 44.8862 154.763 45.0462C154.956 45.1995 155.226 45.2762 155.573 45.2762ZM158.963 45.8662V40.9062H159.723L159.793 41.8562C159.947 41.5295 160.18 41.2695 160.493 41.0762C160.807 40.8829 161.193 40.7862 161.653 40.7862V41.6662H161.423C161.13 41.6662 160.86 41.7195 160.613 41.8262C160.367 41.9262 160.17 42.0995 160.023 42.3462C159.877 42.5929 159.803 42.9329 159.803 43.3662V45.8662H158.963ZM164.316 45.8662C163.863 45.8662 163.506 45.7562 163.246 45.5362C162.986 45.3162 162.856 44.9195 162.856 44.3462V41.6162H161.996V40.9062H162.856L162.966 39.7162H163.696V40.9062H165.156V41.6162H163.696V44.3462C163.696 44.6595 163.759 44.8729 163.886 44.9862C164.013 45.0929 164.236 45.1462 164.556 45.1462H165.076V45.8662H164.316Z" fill="#707070"/>
<mask id="path-4-outside-1_3233_25073" maskUnits="userSpaceOnUse" x="133" y="11.6377" width="20" height="17" fill="black">
<rect fill="white" x="133" y="11.6377" width="20" height="17"/>
<path d="M150.606 17.8191C150.349 17.7301 150.081 17.6796 149.809 17.6691C149.755 17.6649 149.689 17.6601 149.636 17.6535C149.662 17.6181 149.694 17.5791 149.72 17.5461C149.945 17.295 150.107 16.9939 150.193 16.6677C150.367 15.9078 150.406 14.4776 149.448 13.9376C149.237 13.8249 149.006 13.7564 148.769 13.7363C148.531 13.7162 148.292 13.745 148.066 13.8209C147.46 14.0028 146.948 14.4111 146.635 14.961C146.294 15.621 146.477 16.2921 146.624 16.8312C146.714 17.1648 146.801 17.4798 146.694 17.5812C146.568 17.7012 146.195 17.6007 145.834 17.502C145.721 17.472 145.605 17.442 145.489 17.412C145.299 16.9914 144.991 16.6346 144.604 16.3842C144.216 16.1338 143.764 16.0005 143.303 16.0002C143.294 16.0002 143.287 16.0002 143.278 16.0002C143.249 15.772 143.192 15.5483 143.108 15.3342C142.51 13.8152 140.831 13.0472 139.729 13.3745C139.414 13.4729 139.132 13.6562 138.914 13.9043C138.668 13.5527 138.35 13.2577 137.982 13.0391C137.563 12.8171 137.103 12.6839 136.63 12.6477C136.157 12.6116 135.682 12.6733 135.235 12.8291C134.985 12.8974 134.753 13.0184 134.554 13.184C134.355 13.3496 134.193 13.5559 134.081 13.7891C133.801 14.4977 134.321 15.3021 135.265 16.7622C135.366 16.9182 135.471 17.0709 135.576 17.2245C135.327 17.3167 135.085 17.427 134.852 17.5545C134.531 17.7093 134.272 17.9682 134.118 18.2892C134.022 18.6172 133.985 18.9592 134.006 19.3002C134.008 21.6068 134.925 23.8181 136.556 25.4491C138.186 27.0802 140.397 27.9976 142.703 28.0002H143.303C145.609 27.9976 147.819 27.0802 149.45 25.4491C151.08 23.8181 151.997 21.6068 152 19.3002C151.995 19.2538 151.984 19.2082 151.968 19.1646C151.702 18.559 151.215 18.0777 150.606 17.8191ZM145.679 18.0843C146.201 18.2259 146.74 18.3723 147.109 18.0168C147.474 17.6676 147.336 17.163 147.203 16.6749C147.07 16.1868 146.934 15.69 147.168 15.2382C147.406 14.8331 147.788 14.533 148.238 14.3981C148.387 14.3469 148.545 14.3262 148.702 14.3374C148.86 14.3485 149.013 14.3912 149.154 14.4629C149.757 14.8032 149.757 15.8883 149.608 16.5348C149.541 16.7715 149.419 16.9891 149.252 17.1702C149.087 17.3757 148.883 17.631 149.033 17.934C149.177 18.2229 149.489 18.2463 149.765 18.2667C149.979 18.2737 150.191 18.3121 150.394 18.3807C150.706 18.5078 150.974 18.7231 151.165 19.0002H148.161C148.23 18.6213 148.306 18.2421 148.394 17.8689C148.557 17.172 148.756 16.4745 148.985 15.7962L148.417 15.6042C148.182 16.3005 147.977 17.0163 147.81 17.7315C147.711 18.15 147.627 18.5754 147.552 19.0002H145.623C145.704 18.7018 145.723 18.3901 145.679 18.0843ZM143.603 17.2002V16.6272C143.937 16.6843 144.249 16.8348 144.502 17.0613C144.755 17.2878 144.939 17.5812 145.032 17.9076L144.408 18.1158L144.597 18.6858L145.096 18.5196C145.086 18.6836 145.053 18.8454 144.998 19.0002H141.607C141.538 18.8077 141.503 18.6047 141.503 18.4002C141.503 18.3401 141.507 18.28 141.513 18.2202L142.008 18.3855L142.198 17.8155L141.674 17.6406C141.797 17.3769 141.982 17.1469 142.214 16.9704C142.445 16.794 142.716 16.6762 143.003 16.6272V17.2002H143.603ZM139.9 13.9508C140.718 13.7072 142.082 14.3687 142.55 15.5556C142.617 15.7254 142.662 15.9028 142.685 16.0839C142.074 16.2441 141.552 16.6396 141.232 17.1839C140.913 17.7283 140.822 18.3771 140.979 18.9885L140.954 19.0002H139.571C139.699 18.8667 139.825 18.7302 139.939 18.5862C140.648 17.6746 141.085 16.5818 141.202 15.4329L140.605 15.3675C140.5 16.4039 140.106 17.39 139.469 18.2142C139.452 18.2355 139.432 18.2541 139.415 18.2742C139.855 17.0251 139.792 15.6537 139.24 14.45C139.4 14.2163 139.632 14.041 139.9 13.9508ZM134.639 14.0108C134.722 13.8597 134.835 13.7273 134.972 13.6218C135.108 13.5164 135.265 13.4401 135.432 13.3976C135.799 13.2713 136.187 13.2206 136.574 13.2486C136.96 13.2766 137.337 13.3827 137.682 13.5605C139.116 14.3891 139.444 16.7769 138.769 18.2778C138.746 18.3306 138.718 18.3792 138.691 18.4278C138.633 18.1833 138.568 17.9412 138.489 17.7051C137.999 16.2682 137.143 14.9837 136.006 13.9778L135.604 14.4224C136.664 15.3595 137.462 16.5563 137.92 17.8953C138.04 18.2562 138.133 18.6255 138.198 19.0002H137.68C136.986 18.1895 136.348 17.3333 135.769 16.4373C134.917 15.1194 134.48 14.4137 134.639 14.0108ZM134.665 18.5313C134.765 18.3302 134.932 18.1707 135.138 18.0813C135.391 17.9422 135.656 17.8263 135.93 17.7351C136.242 18.1689 136.565 18.5906 136.901 19.0002H134.621C134.59 18.8429 134.605 18.6799 134.665 18.5313ZM143.303 27.4002H142.703C140.608 27.3979 138.595 26.5844 137.087 25.1303C135.578 23.6761 134.691 21.6943 134.611 19.6002H151.395C151.315 21.6943 150.428 23.6761 148.919 25.1303C147.411 26.5844 145.398 27.3979 143.303 27.4002Z"/>
</mask>
<path d="M150.606 17.8191C150.349 17.7301 150.081 17.6796 149.809 17.6691C149.755 17.6649 149.689 17.6601 149.636 17.6535C149.662 17.6181 149.694 17.5791 149.72 17.5461C149.945 17.295 150.107 16.9939 150.193 16.6677C150.367 15.9078 150.406 14.4776 149.448 13.9376C149.237 13.8249 149.006 13.7564 148.769 13.7363C148.531 13.7162 148.292 13.745 148.066 13.8209C147.46 14.0028 146.948 14.4111 146.635 14.961C146.294 15.621 146.477 16.2921 146.624 16.8312C146.714 17.1648 146.801 17.4798 146.694 17.5812C146.568 17.7012 146.195 17.6007 145.834 17.502C145.721 17.472 145.605 17.442 145.489 17.412C145.299 16.9914 144.991 16.6346 144.604 16.3842C144.216 16.1338 143.764 16.0005 143.303 16.0002C143.294 16.0002 143.287 16.0002 143.278 16.0002C143.249 15.772 143.192 15.5483 143.108 15.3342C142.51 13.8152 140.831 13.0472 139.729 13.3745C139.414 13.4729 139.132 13.6562 138.914 13.9043C138.668 13.5527 138.35 13.2577 137.982 13.0391C137.563 12.8171 137.103 12.6839 136.63 12.6477C136.157 12.6116 135.682 12.6733 135.235 12.8291C134.985 12.8974 134.753 13.0184 134.554 13.184C134.355 13.3496 134.193 13.5559 134.081 13.7891C133.801 14.4977 134.321 15.3021 135.265 16.7622C135.366 16.9182 135.471 17.0709 135.576 17.2245C135.327 17.3167 135.085 17.427 134.852 17.5545C134.531 17.7093 134.272 17.9682 134.118 18.2892C134.022 18.6172 133.985 18.9592 134.006 19.3002C134.008 21.6068 134.925 23.8181 136.556 25.4491C138.186 27.0802 140.397 27.9976 142.703 28.0002H143.303C145.609 27.9976 147.819 27.0802 149.45 25.4491C151.08 23.8181 151.997 21.6068 152 19.3002C151.995 19.2538 151.984 19.2082 151.968 19.1646C151.702 18.559 151.215 18.0777 150.606 17.8191ZM145.679 18.0843C146.201 18.2259 146.74 18.3723 147.109 18.0168C147.474 17.6676 147.336 17.163 147.203 16.6749C147.07 16.1868 146.934 15.69 147.168 15.2382C147.406 14.8331 147.788 14.533 148.238 14.3981C148.387 14.3469 148.545 14.3262 148.702 14.3374C148.86 14.3485 149.013 14.3912 149.154 14.4629C149.757 14.8032 149.757 15.8883 149.608 16.5348C149.541 16.7715 149.419 16.9891 149.252 17.1702C149.087 17.3757 148.883 17.631 149.033 17.934C149.177 18.2229 149.489 18.2463 149.765 18.2667C149.979 18.2737 150.191 18.3121 150.394 18.3807C150.706 18.5078 150.974 18.7231 151.165 19.0002H148.161C148.23 18.6213 148.306 18.2421 148.394 17.8689C148.557 17.172 148.756 16.4745 148.985 15.7962L148.417 15.6042C148.182 16.3005 147.977 17.0163 147.81 17.7315C147.711 18.15 147.627 18.5754 147.552 19.0002H145.623C145.704 18.7018 145.723 18.3901 145.679 18.0843ZM143.603 17.2002V16.6272C143.937 16.6843 144.249 16.8348 144.502 17.0613C144.755 17.2878 144.939 17.5812 145.032 17.9076L144.408 18.1158L144.597 18.6858L145.096 18.5196C145.086 18.6836 145.053 18.8454 144.998 19.0002H141.607C141.538 18.8077 141.503 18.6047 141.503 18.4002C141.503 18.3401 141.507 18.28 141.513 18.2202L142.008 18.3855L142.198 17.8155L141.674 17.6406C141.797 17.3769 141.982 17.1469 142.214 16.9704C142.445 16.794 142.716 16.6762 143.003 16.6272V17.2002H143.603ZM139.9 13.9508C140.718 13.7072 142.082 14.3687 142.55 15.5556C142.617 15.7254 142.662 15.9028 142.685 16.0839C142.074 16.2441 141.552 16.6396 141.232 17.1839C140.913 17.7283 140.822 18.3771 140.979 18.9885L140.954 19.0002H139.571C139.699 18.8667 139.825 18.7302 139.939 18.5862C140.648 17.6746 141.085 16.5818 141.202 15.4329L140.605 15.3675C140.5 16.4039 140.106 17.39 139.469 18.2142C139.452 18.2355 139.432 18.2541 139.415 18.2742C139.855 17.0251 139.792 15.6537 139.24 14.45C139.4 14.2163 139.632 14.041 139.9 13.9508ZM134.639 14.0108C134.722 13.8597 134.835 13.7273 134.972 13.6218C135.108 13.5164 135.265 13.4401 135.432 13.3976C135.799 13.2713 136.187 13.2206 136.574 13.2486C136.96 13.2766 137.337 13.3827 137.682 13.5605C139.116 14.3891 139.444 16.7769 138.769 18.2778C138.746 18.3306 138.718 18.3792 138.691 18.4278C138.633 18.1833 138.568 17.9412 138.489 17.7051C137.999 16.2682 137.143 14.9837 136.006 13.9778L135.604 14.4224C136.664 15.3595 137.462 16.5563 137.92 17.8953C138.04 18.2562 138.133 18.6255 138.198 19.0002H137.68C136.986 18.1895 136.348 17.3333 135.769 16.4373C134.917 15.1194 134.48 14.4137 134.639 14.0108ZM134.665 18.5313C134.765 18.3302 134.932 18.1707 135.138 18.0813C135.391 17.9422 135.656 17.8263 135.93 17.7351C136.242 18.1689 136.565 18.5906 136.901 19.0002H134.621C134.59 18.8429 134.605 18.6799 134.665 18.5313ZM143.303 27.4002H142.703C140.608 27.3979 138.595 26.5844 137.087 25.1303C135.578 23.6761 134.691 21.6943 134.611 19.6002H151.395C151.315 21.6943 150.428 23.6761 148.919 25.1303C147.411 26.5844 145.398 27.3979 143.303 27.4002Z" fill="#707070"/>
<path d="M150.606 17.8191C150.349 17.7301 150.081 17.6796 149.809 17.6691C149.755 17.6649 149.689 17.6601 149.636 17.6535C149.662 17.6181 149.694 17.5791 149.72 17.5461C149.945 17.295 150.107 16.9939 150.193 16.6677C150.367 15.9078 150.406 14.4776 149.448 13.9376C149.237 13.8249 149.006 13.7564 148.769 13.7363C148.531 13.7162 148.292 13.745 148.066 13.8209C147.46 14.0028 146.948 14.4111 146.635 14.961C146.294 15.621 146.477 16.2921 146.624 16.8312C146.714 17.1648 146.801 17.4798 146.694 17.5812C146.568 17.7012 146.195 17.6007 145.834 17.502C145.721 17.472 145.605 17.442 145.489 17.412C145.299 16.9914 144.991 16.6346 144.604 16.3842C144.216 16.1338 143.764 16.0005 143.303 16.0002C143.294 16.0002 143.287 16.0002 143.278 16.0002C143.249 15.772 143.192 15.5483 143.108 15.3342C142.51 13.8152 140.831 13.0472 139.729 13.3745C139.414 13.4729 139.132 13.6562 138.914 13.9043C138.668 13.5527 138.35 13.2577 137.982 13.0391C137.563 12.8171 137.103 12.6839 136.63 12.6477C136.157 12.6116 135.682 12.6733 135.235 12.8291C134.985 12.8974 134.753 13.0184 134.554 13.184C134.355 13.3496 134.193 13.5559 134.081 13.7891C133.801 14.4977 134.321 15.3021 135.265 16.7622C135.366 16.9182 135.471 17.0709 135.576 17.2245C135.327 17.3167 135.085 17.427 134.852 17.5545C134.531 17.7093 134.272 17.9682 134.118 18.2892C134.022 18.6172 133.985 18.9592 134.006 19.3002C134.008 21.6068 134.925 23.8181 136.556 25.4491C138.186 27.0802 140.397 27.9976 142.703 28.0002H143.303C145.609 27.9976 147.819 27.0802 149.45 25.4491C151.08 23.8181 151.997 21.6068 152 19.3002C151.995 19.2538 151.984 19.2082 151.968 19.1646C151.702 18.559 151.215 18.0777 150.606 17.8191ZM145.679 18.0843C146.201 18.2259 146.74 18.3723 147.109 18.0168C147.474 17.6676 147.336 17.163 147.203 16.6749C147.07 16.1868 146.934 15.69 147.168 15.2382C147.406 14.8331 147.788 14.533 148.238 14.3981C148.387 14.3469 148.545 14.3262 148.702 14.3374C148.86 14.3485 149.013 14.3912 149.154 14.4629C149.757 14.8032 149.757 15.8883 149.608 16.5348C149.541 16.7715 149.419 16.9891 149.252 17.1702C149.087 17.3757 148.883 17.631 149.033 17.934C149.177 18.2229 149.489 18.2463 149.765 18.2667C149.979 18.2737 150.191 18.3121 150.394 18.3807C150.706 18.5078 150.974 18.7231 151.165 19.0002H148.161C148.23 18.6213 148.306 18.2421 148.394 17.8689C148.557 17.172 148.756 16.4745 148.985 15.7962L148.417 15.6042C148.182 16.3005 147.977 17.0163 147.81 17.7315C147.711 18.15 147.627 18.5754 147.552 19.0002H145.623C145.704 18.7018 145.723 18.3901 145.679 18.0843ZM143.603 17.2002V16.6272C143.937 16.6843 144.249 16.8348 144.502 17.0613C144.755 17.2878 144.939 17.5812 145.032 17.9076L144.408 18.1158L144.597 18.6858L145.096 18.5196C145.086 18.6836 145.053 18.8454 144.998 19.0002H141.607C141.538 18.8077 141.503 18.6047 141.503 18.4002C141.503 18.3401 141.507 18.28 141.513 18.2202L142.008 18.3855L142.198 17.8155L141.674 17.6406C141.797 17.3769 141.982 17.1469 142.214 16.9704C142.445 16.794 142.716 16.6762 143.003 16.6272V17.2002H143.603ZM139.9 13.9508C140.718 13.7072 142.082 14.3687 142.55 15.5556C142.617 15.7254 142.662 15.9028 142.685 16.0839C142.074 16.2441 141.552 16.6396 141.232 17.1839C140.913 17.7283 140.822 18.3771 140.979 18.9885L140.954 19.0002H139.571C139.699 18.8667 139.825 18.7302 139.939 18.5862C140.648 17.6746 141.085 16.5818 141.202 15.4329L140.605 15.3675C140.5 16.4039 140.106 17.39 139.469 18.2142C139.452 18.2355 139.432 18.2541 139.415 18.2742C139.855 17.0251 139.792 15.6537 139.24 14.45C139.4 14.2163 139.632 14.041 139.9 13.9508ZM134.639 14.0108C134.722 13.8597 134.835 13.7273 134.972 13.6218C135.108 13.5164 135.265 13.4401 135.432 13.3976C135.799 13.2713 136.187 13.2206 136.574 13.2486C136.96 13.2766 137.337 13.3827 137.682 13.5605C139.116 14.3891 139.444 16.7769 138.769 18.2778C138.746 18.3306 138.718 18.3792 138.691 18.4278C138.633 18.1833 138.568 17.9412 138.489 17.7051C137.999 16.2682 137.143 14.9837 136.006 13.9778L135.604 14.4224C136.664 15.3595 137.462 16.5563 137.92 17.8953C138.04 18.2562 138.133 18.6255 138.198 19.0002H137.68C136.986 18.1895 136.348 17.3333 135.769 16.4373C134.917 15.1194 134.48 14.4137 134.639 14.0108ZM134.665 18.5313C134.765 18.3302 134.932 18.1707 135.138 18.0813C135.391 17.9422 135.656 17.8263 135.93 17.7351C136.242 18.1689 136.565 18.5906 136.901 19.0002H134.621C134.59 18.8429 134.605 18.6799 134.665 18.5313ZM143.303 27.4002H142.703C140.608 27.3979 138.595 26.5844 137.087 25.1303C135.578 23.6761 134.691 21.6943 134.611 19.6002H151.395C151.315 21.6943 150.428 23.6761 148.919 25.1303C147.411 26.5844 145.398 27.3979 143.303 27.4002Z" stroke="#707070" stroke-width="0.2" mask="url(#path-4-outside-1_3233_25073)"/>
<path d="M143.602 17.7998H143.002V18.3998H143.602V17.7998Z" fill="#707070"/>
<path d="M143.554 13.5999V13.5999V14.1999C143.554 14.2927 143.59 14.3818 143.656 14.4474C143.722 14.513 143.811 14.5499 143.903 14.5499H145.103H145.103C145.832 14.5491 146.531 14.2591 147.046 13.7436C147.562 13.228 147.851 12.529 147.852 11.8V11.7999V11.1999C147.852 11.1071 147.815 11.0181 147.75 10.9524C147.684 10.8868 147.595 10.8499 147.502 10.8499L146.303 10.8499L146.303 10.8499C145.574 10.8507 144.875 11.1407 144.36 11.6562C143.844 12.1718 143.554 12.8708 143.554 13.5999ZM145.103 13.8499H144.848L146.23 12.6656L146.268 12.633L146.235 12.5951L145.845 12.1397L145.813 12.1017L145.775 12.1343L144.262 13.4312C144.302 12.9399 144.519 12.4782 144.874 12.1322C145.256 11.7593 145.769 11.5503 146.303 11.5499H147.152V11.7999C147.152 12.3434 146.936 12.8645 146.551 13.2488C146.167 13.6331 145.646 13.8493 145.103 13.8499Z" fill="#707070" stroke="#707070" stroke-width="0.1"/>
<path d="M140.854 11.7999C140.854 11.9878 140.91 12.1715 141.014 12.3277C141.119 12.4839 141.267 12.6057 141.441 12.6776C141.614 12.7495 141.805 12.7683 141.99 12.7317C142.174 12.695 142.343 12.6045 142.476 12.4717C142.609 12.3388 142.699 12.1695 142.736 11.9852C142.773 11.801 142.754 11.6099 142.682 11.4364C142.61 11.2628 142.488 11.1144 142.332 11.01C142.176 10.9056 141.992 10.8499 141.804 10.8499C141.552 10.8499 141.311 10.95 141.133 11.1282C140.954 11.3063 140.854 11.548 140.854 11.7999ZM142.054 11.7999C142.054 11.8494 142.04 11.8977 142.012 11.9388C141.985 11.9799 141.946 12.012 141.9 12.0309C141.854 12.0498 141.804 12.0548 141.756 12.0451C141.707 12.0355 141.662 12.0116 141.628 11.9767C141.593 11.9417 141.569 11.8972 141.559 11.8487C141.549 11.8002 141.554 11.7499 141.573 11.7042C141.592 11.6586 141.624 11.6195 141.665 11.592C141.707 11.5646 141.755 11.5499 141.804 11.5499C141.871 11.5499 141.934 11.5762 141.981 11.6231C142.028 11.67 142.054 11.7336 142.054 11.7999Z" fill="#707070" stroke="#707070" stroke-width="0.1"/>
<path d="M136.954 10.9C136.954 11.0879 137.01 11.2716 137.114 11.4278C137.218 11.584 137.367 11.7058 137.54 11.7777C137.714 11.8496 137.905 11.8684 138.089 11.8318C138.274 11.7951 138.443 11.7046 138.576 11.5718C138.709 11.4389 138.799 11.2696 138.836 11.0853C138.872 10.9011 138.854 10.71 138.782 10.5365C138.71 10.3629 138.588 10.2145 138.432 10.1101C138.275 10.0057 138.092 9.95 137.904 9.95C137.652 9.95 137.41 10.0501 137.232 10.2283C137.054 10.4064 136.954 10.648 136.954 10.9ZM138.154 10.9C138.154 10.9495 138.139 10.9978 138.112 11.0389C138.084 11.08 138.045 11.1121 138 11.131C137.954 11.1499 137.904 11.1548 137.855 11.1452C137.807 11.1356 137.762 11.1117 137.727 11.0768C137.692 11.0418 137.668 10.9973 137.659 10.9488C137.649 10.9003 137.654 10.85 137.673 10.8043C137.692 10.7587 137.724 10.7196 137.765 10.6921C137.806 10.6647 137.854 10.65 137.904 10.65C137.97 10.65 138.034 10.6763 138.081 10.7232C138.128 10.7701 138.154 10.8337 138.154 10.9Z" fill="#707070" stroke="#707070" stroke-width="0.1"/>
<path d="M136.704 22.4184L136.678 22.3756L136.635 22.4016L136.122 22.713L136.08 22.7389L136.106 22.7816C136.927 24.1375 138.124 25.2259 139.552 25.9151L139.597 25.9368L139.618 25.8918L139.879 25.3518L139.901 25.3068L139.856 25.285C138.55 24.6544 137.456 23.6587 136.704 22.4184Z" fill="#707070" stroke="#707070" stroke-width="0.1"/>
<path d="M140.953 25.6001V25.5501H140.903H140.303H140.253V25.6001V26.2001V26.2501H140.303H140.903H140.953V26.2001V25.6001Z" fill="#707070" stroke="#707070" stroke-width="0.1"/>
<path d="M219.969 45.8662L217.339 38.8662H218.249L220.459 44.9762L222.689 38.8662H223.579L220.949 45.8662H219.969ZM224.758 39.8062C224.592 39.8062 224.452 39.7529 224.338 39.6462C224.232 39.5329 224.178 39.3929 224.178 39.2262C224.178 39.0662 224.232 38.9329 224.338 38.8262C224.452 38.7195 224.592 38.6662 224.758 38.6662C224.918 38.6662 225.055 38.7195 225.168 38.8262C225.282 38.9329 225.338 39.0662 225.338 39.2262C225.338 39.3929 225.282 39.5329 225.168 39.6462C225.055 39.7529 224.918 39.8062 224.758 39.8062ZM224.338 45.8662V40.9062H225.178V45.8662H224.338ZM228.651 45.9862C228.157 45.9862 227.724 45.8729 227.351 45.6462C226.984 45.4195 226.697 45.1095 226.491 44.7162C226.291 44.3229 226.191 43.8762 226.191 43.3762C226.191 42.8762 226.294 42.4329 226.501 42.0462C226.707 41.6529 226.994 41.3462 227.361 41.1262C227.727 40.8995 228.161 40.7862 228.661 40.7862C229.067 40.7862 229.427 40.8695 229.741 41.0362C230.054 41.2029 230.297 41.4362 230.471 41.7362V38.6662H231.311V45.8662H230.551L230.471 45.0462C230.311 45.2862 230.081 45.5029 229.781 45.6962C229.481 45.8895 229.104 45.9862 228.651 45.9862ZM228.741 45.2562C229.074 45.2562 229.367 45.1795 229.621 45.0262C229.881 44.8662 230.081 44.6462 230.221 44.3662C230.367 44.0862 230.441 43.7595 230.441 43.3862C230.441 43.0129 230.367 42.6862 230.221 42.4062C230.081 42.1262 229.881 41.9095 229.621 41.7562C229.367 41.5962 229.074 41.5162 228.741 41.5162C228.414 41.5162 228.121 41.5962 227.861 41.7562C227.607 41.9095 227.407 42.1262 227.261 42.4062C227.121 42.6862 227.051 43.0129 227.051 43.3862C227.051 43.7595 227.121 44.0862 227.261 44.3662C227.407 44.6462 227.607 44.8662 227.861 45.0262C228.121 45.1795 228.414 45.2562 228.741 45.2562ZM234.67 45.9862C234.197 45.9862 233.777 45.8795 233.41 45.6662C233.043 45.4462 232.753 45.1429 232.54 44.7562C232.333 44.3695 232.23 43.9129 232.23 43.3862C232.23 42.8662 232.333 42.4129 232.54 42.0262C232.747 41.6329 233.033 41.3295 233.4 41.1162C233.773 40.8962 234.203 40.7862 234.69 40.7862C235.17 40.7862 235.583 40.8962 235.93 41.1162C236.283 41.3295 236.553 41.6129 236.74 41.9662C236.927 42.3195 237.02 42.6995 237.02 43.1062C237.02 43.1795 237.017 43.2529 237.01 43.3262C237.01 43.3995 237.01 43.4829 237.01 43.5762H233.06C233.08 43.9562 233.167 44.2729 233.32 44.5262C233.48 44.7729 233.677 44.9595 233.91 45.0862C234.15 45.2129 234.403 45.2762 234.67 45.2762C235.017 45.2762 235.307 45.1962 235.54 45.0362C235.773 44.8762 235.943 44.6595 236.05 44.3862H236.88C236.747 44.8462 236.49 45.2295 236.11 45.5362C235.737 45.8362 235.257 45.9862 234.67 45.9862ZM234.67 41.4962C234.27 41.4962 233.913 41.6195 233.6 41.8662C233.293 42.1062 233.117 42.4595 233.07 42.9262H236.19C236.17 42.4795 236.017 42.1295 235.73 41.8762C235.443 41.6229 235.09 41.4962 234.67 41.4962ZM240.153 45.9862C239.687 45.9862 239.267 45.8795 238.893 45.6662C238.52 45.4529 238.223 45.1529 238.003 44.7662C237.79 44.3729 237.683 43.9129 237.683 43.3862C237.683 42.8595 237.793 42.4029 238.013 42.0162C238.233 41.6229 238.53 41.3195 238.903 41.1062C239.283 40.8929 239.707 40.7862 240.173 40.7862C240.64 40.7862 241.06 40.8929 241.433 41.1062C241.807 41.3195 242.1 41.6229 242.313 42.0162C242.533 42.4029 242.643 42.8595 242.643 43.3862C242.643 43.9129 242.533 44.3729 242.313 44.7662C242.093 45.1529 241.793 45.4529 241.413 45.6662C241.04 45.8795 240.62 45.9862 240.153 45.9862ZM240.153 45.2662C240.44 45.2662 240.707 45.1962 240.953 45.0562C241.2 44.9162 241.4 44.7062 241.553 44.4262C241.707 44.1462 241.783 43.7995 241.783 43.3862C241.783 42.9729 241.707 42.6262 241.553 42.3462C241.407 42.0662 241.21 41.8562 240.963 41.7162C240.717 41.5762 240.453 41.5062 240.173 41.5062C239.887 41.5062 239.62 41.5762 239.373 41.7162C239.127 41.8562 238.927 42.0662 238.773 42.3462C238.62 42.6262 238.543 42.9729 238.543 43.3862C238.543 43.7995 238.62 44.1462 238.773 44.4262C238.927 44.7062 239.123 44.9162 239.363 45.0562C239.61 45.1962 239.873 45.2662 240.153 45.2662ZM245.471 45.9862C244.878 45.9862 244.385 45.8362 243.991 45.5362C243.598 45.2362 243.368 44.8295 243.301 44.3162H244.161C244.215 44.5762 244.351 44.8029 244.571 44.9962C244.798 45.1829 245.101 45.2762 245.481 45.2762C245.835 45.2762 246.095 45.2029 246.261 45.0562C246.428 44.9029 246.511 44.7229 246.511 44.5162C246.511 44.2162 246.401 44.0162 246.181 43.9162C245.968 43.8162 245.665 43.7262 245.271 43.6462C245.005 43.5929 244.738 43.5162 244.471 43.4162C244.205 43.3162 243.981 43.1762 243.801 42.9962C243.621 42.8095 243.531 42.5662 243.531 42.2662C243.531 41.8329 243.691 41.4795 244.011 41.2062C244.338 40.9262 244.778 40.7862 245.331 40.7862C245.858 40.7862 246.288 40.9195 246.621 41.1862C246.961 41.4462 247.158 41.8195 247.211 42.3062H246.381C246.348 42.0529 246.238 41.8562 246.051 41.7162C245.871 41.5695 245.628 41.4962 245.321 41.4962C245.021 41.4962 244.788 41.5595 244.621 41.6862C244.461 41.8129 244.381 41.9795 244.381 42.1862C244.381 42.3862 244.485 42.5429 244.691 42.6562C244.905 42.7695 245.191 42.8662 245.551 42.9462C245.858 43.0129 246.148 43.0962 246.421 43.1962C246.701 43.2895 246.928 43.4329 247.101 43.6262C247.281 43.8129 247.371 44.0862 247.371 44.4462C247.378 44.8929 247.208 45.2629 246.861 45.5562C246.521 45.8429 246.058 45.9862 245.471 45.9862Z" fill="#707070"/>
<path d="M239.702 26.3022H237.402C237.275 25.8691 237.012 25.4888 236.651 25.2181C236.29 24.9475 235.851 24.8013 235.4 24.8013C234.949 24.8013 234.51 24.9475 234.149 25.2181C233.788 25.4888 233.524 25.8691 233.398 26.3022H223.6C223.441 26.3022 223.288 26.3654 223.176 26.4779C223.063 26.5905 223 26.7431 223 26.9022C223 27.0614 223.063 27.214 223.176 27.3266C223.288 27.4391 223.441 27.5023 223.6 27.5023H233.399C233.526 27.9346 233.79 28.3142 234.151 28.5842C234.512 28.8542 234.95 29.0001 235.401 29.0001C235.851 29.0001 236.29 28.8542 236.65 28.5842C237.011 28.3142 237.275 27.9346 237.402 27.5023H239.7C239.859 27.5023 240.012 27.4391 240.125 27.3266C240.237 27.214 240.3 27.0614 240.3 26.9022C240.3 26.7431 240.237 26.5905 240.125 26.4779C240.012 26.3654 239.859 26.3022 239.7 26.3022H239.702ZM235.402 27.8024C235.224 27.8024 235.05 27.7496 234.902 27.6507C234.754 27.5517 234.638 27.4112 234.57 27.2467C234.502 27.0822 234.484 26.9012 234.519 26.7266C234.554 26.552 234.639 26.3916 234.765 26.2658C234.891 26.1399 235.052 26.0541 235.226 26.0194C235.401 25.9847 235.582 26.0025 235.746 26.0706C235.911 26.1388 236.051 26.2541 236.15 26.4022C236.249 26.5502 236.302 26.7242 236.302 26.9022C236.302 27.141 236.207 27.3699 236.038 27.5387C235.87 27.7075 235.641 27.8024 235.402 27.8024Z" fill="#707070"/>
<path d="M239.118 11H224.884C224.385 11.0005 223.906 11.1991 223.552 11.5524C223.199 11.9057 223 12.3847 223 12.8842V22.3175C223 22.8171 223.199 23.2961 223.552 23.6493C223.906 24.0026 224.385 24.2013 224.884 24.2017H239.118C239.618 24.2013 240.097 24.0026 240.45 23.6493C240.803 23.2961 241.002 22.8171 241.002 22.3175V12.8842C241.002 12.3847 240.803 11.9057 240.45 11.5524C240.097 11.1991 239.618 11.0005 239.118 11ZM239.802 22.3175C239.802 22.4989 239.73 22.6728 239.602 22.801C239.473 22.9293 239.3 23.0014 239.118 23.0016H224.884C224.703 23.0014 224.529 22.9293 224.401 22.801C224.272 22.6728 224.2 22.4989 224.2 22.3175V12.8842C224.2 12.7029 224.272 12.529 224.401 12.4007C224.529 12.2724 224.703 12.2003 224.884 12.2002H239.118C239.3 12.2003 239.473 12.2724 239.602 12.4007C239.73 12.529 239.802 12.7029 239.802 12.8842V22.3175Z" fill="#707070"/>
<path d="M235.32 17.0921L230.52 14.0917C230.429 14.0349 230.324 14.0035 230.217 14.0007C230.11 13.9979 230.004 14.0238 229.911 14.0757C229.817 14.1276 229.739 14.2037 229.685 14.296C229.63 14.3883 229.602 14.4935 229.602 14.6006V20.6014C229.602 20.7085 229.63 20.8136 229.685 20.9059C229.739 20.9982 229.817 21.0743 229.911 21.1262C230.004 21.1781 230.11 21.2041 230.217 21.2012C230.324 21.1984 230.429 21.167 230.52 21.1102L235.32 18.1098C235.407 18.056 235.479 17.9809 235.529 17.8917C235.578 17.8024 235.604 17.7019 235.604 17.5998C235.604 17.4976 235.578 17.3971 235.529 17.3079C235.479 17.2186 235.407 17.1435 235.32 17.0897V17.0921ZM230.802 19.5212V15.6807L233.87 17.601L230.802 19.5212Z" fill="#707070"/>
<path d="M307.97 45.8662V38.8662H310.27C310.817 38.8662 311.267 38.9562 311.62 39.1362C311.973 39.3162 312.233 39.5595 312.4 39.8662C312.573 40.1729 312.66 40.5195 312.66 40.9062C312.66 41.2862 312.577 41.6295 312.41 41.9362C312.243 42.2429 311.983 42.4895 311.63 42.6762C311.277 42.8562 310.823 42.9462 310.27 42.9462H308.81V45.8662H307.97ZM308.81 42.2362H310.25C310.81 42.2362 311.207 42.1195 311.44 41.8862C311.68 41.6462 311.8 41.3195 311.8 40.9062C311.8 40.4862 311.68 40.1595 311.44 39.9262C311.207 39.6862 310.81 39.5662 310.25 39.5662H308.81V42.2362ZM313.471 45.8662V40.9062H314.231L314.301 41.8562C314.454 41.5295 314.688 41.2695 315.001 41.0762C315.314 40.8829 315.701 40.7862 316.161 40.7862V41.6662H315.931C315.638 41.6662 315.368 41.7195 315.121 41.8262C314.874 41.9262 314.678 42.0995 314.531 42.3462C314.384 42.5929 314.311 42.9329 314.311 43.3662V45.8662H313.471ZM318.938 45.9862C318.471 45.9862 318.051 45.8795 317.678 45.6662C317.305 45.4529 317.008 45.1529 316.788 44.7662C316.575 44.3729 316.468 43.9129 316.468 43.3862C316.468 42.8595 316.578 42.4029 316.798 42.0162C317.018 41.6229 317.315 41.3195 317.688 41.1062C318.068 40.8929 318.491 40.7862 318.958 40.7862C319.425 40.7862 319.845 40.8929 320.218 41.1062C320.591 41.3195 320.885 41.6229 321.098 42.0162C321.318 42.4029 321.428 42.8595 321.428 43.3862C321.428 43.9129 321.318 44.3729 321.098 44.7662C320.878 45.1529 320.578 45.4529 320.198 45.6662C319.825 45.8795 319.405 45.9862 318.938 45.9862ZM318.938 45.2662C319.225 45.2662 319.491 45.1962 319.738 45.0562C319.985 44.9162 320.185 44.7062 320.338 44.4262C320.491 44.1462 320.568 43.7995 320.568 43.3862C320.568 42.9729 320.491 42.6262 320.338 42.3462C320.191 42.0662 319.995 41.8562 319.748 41.7162C319.501 41.5762 319.238 41.5062 318.958 41.5062C318.671 41.5062 318.405 41.5762 318.158 41.7162C317.911 41.8562 317.711 42.0662 317.558 42.3462C317.405 42.6262 317.328 42.9729 317.328 43.3862C317.328 43.7995 317.405 44.1462 317.558 44.4262C317.711 44.7062 317.908 44.9162 318.148 45.0562C318.395 45.1962 318.658 45.2662 318.938 45.2662ZM322.626 45.8662V41.6162H321.876V40.9062H322.626V40.0462C322.626 39.5662 322.746 39.2162 322.986 38.9962C323.226 38.7762 323.576 38.6662 324.036 38.6662H324.536V39.3862H324.166C323.913 39.3862 323.733 39.4395 323.626 39.5462C323.519 39.6462 323.466 39.8195 323.466 40.0662V40.9062H326.546V45.8662H325.706V41.6162H323.466V45.8662H322.626ZM326.136 39.9562C325.976 39.9562 325.839 39.9029 325.726 39.7962C325.613 39.6829 325.556 39.5429 325.556 39.3762C325.556 39.2162 325.613 39.0829 325.726 38.9762C325.839 38.8695 325.976 38.8162 326.136 38.8162C326.303 38.8162 326.439 38.8695 326.546 38.9762C326.659 39.0829 326.716 39.2162 326.716 39.3762C326.716 39.5429 326.659 39.6829 326.546 39.7962C326.439 39.9029 326.303 39.9562 326.136 39.9562ZM327.79 45.8662V38.6662H328.63V45.8662H327.79ZM331.997 45.9862C331.523 45.9862 331.103 45.8795 330.737 45.6662C330.37 45.4462 330.08 45.1429 329.867 44.7562C329.66 44.3695 329.557 43.9129 329.557 43.3862C329.557 42.8662 329.66 42.4129 329.867 42.0262C330.073 41.6329 330.36 41.3295 330.727 41.1162C331.1 40.8962 331.53 40.7862 332.017 40.7862C332.497 40.7862 332.91 40.8962 333.257 41.1162C333.61 41.3295 333.88 41.6129 334.067 41.9662C334.253 42.3195 334.347 42.6995 334.347 43.1062C334.347 43.1795 334.343 43.2529 334.337 43.3262C334.337 43.3995 334.337 43.4829 334.337 43.5762H330.387C330.407 43.9562 330.493 44.2729 330.647 44.5262C330.807 44.7729 331.003 44.9595 331.237 45.0862C331.477 45.2129 331.73 45.2762 331.997 45.2762C332.343 45.2762 332.633 45.1962 332.867 45.0362C333.1 44.8762 333.27 44.6595 333.377 44.3862H334.207C334.073 44.8462 333.817 45.2295 333.437 45.5362C333.063 45.8362 332.583 45.9862 331.997 45.9862ZM331.997 41.4962C331.597 41.4962 331.24 41.6195 330.927 41.8662C330.62 42.1062 330.443 42.4595 330.397 42.9262H333.517C333.497 42.4795 333.343 42.1295 333.057 41.8762C332.77 41.6229 332.417 41.4962 331.997 41.4962Z" fill="#707070"/>
<path d="M323.851 18.3463C325.061 17.5063 325.848 16.1469 325.848 14.6154C325.848 12.0705 323.673 10 321 10C318.327 10 316.152 12.0705 316.152 14.6154C316.152 16.1469 316.939 17.5063 318.149 18.3463C315.142 19.4419 313 22.2179 313 25.4615C313 26.8613 314.196 28 315.667 28H326.333C327.804 28 329 26.8613 329 25.4615C329 22.2179 326.858 19.4419 323.851 18.3463ZM317.606 14.6154C317.606 12.8339 319.129 11.3846 321 11.3846C322.871 11.3846 324.394 12.8339 324.394 14.6154C324.394 16.3968 322.871 17.8462 321 17.8462C319.129 17.8462 317.606 16.3968 317.606 14.6154ZM326.333 26.6154H315.667C314.998 26.6154 314.455 26.0978 314.455 25.4615C314.455 22.0258 317.391 19.2307 321 19.2307C324.609 19.2307 327.546 22.0258 327.546 25.4615C327.545 26.0978 327.002 26.6154 326.333 26.6154Z" fill="#707070"/>
<path d="M26 1H82C82 3.20914 80.2091 5 78 5H30C27.7909 5 26 3.20914 26 1Z" fill="#0B6FAA"/>
<rect x="122" y="71" width="134" height="5" rx="2.5" fill="black"/>
</g>
<defs>
<filter id="filter0_bd_3233_25073" x="-20" y="-19" width="415" height="123" filterUnits="userSpaceOnUse" color-interpolation-filters="sRGB">
<feFlood flood-opacity="0" result="BackgroundImageFix"/>
<feGaussianBlur in="BackgroundImageFix" stdDeviation="10"/>
<feComposite in2="SourceAlpha" operator="in" result="effect1_backgroundBlur_3233_25073"/>
<feColorMatrix in="SourceAlpha" type="matrix" values="0 0 0 0 0 0 0 0 0 0 0 0 0 0 0 0 0 0 127 0" result="hardAlpha"/>
<feOffset dy="-0.5"/>
<feColorMatrix type="matrix" values="0 0 0 0 0 0 0 0 0 0 0 0 0 0 0 0 0 0 0.3 0"/>
<feBlend mode="normal" in2="effect1_backgroundBlur_3233_25073" result="effect2_dropShadow_3233_25073"/>
<feBlend mode="normal" in="SourceGraphic" in2="effect2_dropShadow_3233_25073" result="shape"/>
</filter>
</defs>
</svg>
