<svg xmlns="http://www.w3.org/2000/svg" xmlns:xlink="http://www.w3.org/1999/xlink" version="1.1" width="36.32373pt" height="13.366155pt" viewBox="0 0 36.32373 13.366155">
<path transform="matrix(1,0,0,-1,-8.477539,8.51077)" d="M7.536058-4.633846ZM8.477597-4.633846V-2.916924C9.265289-2.264615 10.028366-1.618462 10.766828-.978461 11.517597-.338461 12.182213 .295385 12.760674 .923078 13.351443 1.55077 13.819136 2.16 14.163752 2.75077 14.520675 3.353847 14.699136 3.938462 14.699136 4.504616 14.699136 5.033847 14.551443 5.501539 14.256059 5.907693 13.972982 6.313847 13.499136 6.516923 12.83452 6.516923 12.157598 6.516923 11.646828 6.295385 11.302213 5.852308 10.957598 5.409231 10.78529 4.873847 10.78529 4.246155H8.496058C8.520674 5.193847 8.729905 5.981539 9.123751 6.609231 9.517597 7.249231 10.040674 7.723077 10.692982 8.030769 11.345289 8.350769 12.077597 8.510769 12.889905 8.510769 14.206828 8.510769 15.228367 8.147693 15.95452 7.421539 16.692982 6.707693 17.062212 5.778462 17.062212 4.633846 17.062212 3.92 16.896059 3.224615 16.563752 2.547692 16.243752 1.87077 15.819136 1.218462 15.289905 .59077 14.760674-.036922 14.188366-.627692 13.572982-1.181539 12.957597-1.723077 12.360674-2.227693 11.782212-2.695385H17.376059V-4.633846H8.477597ZM17.920674-4.633846ZM25.08375-4.633846V-2.233846H18.71452V-.350769L24.769906 8.289231H27.446827V-.184615H29.145289V-2.233846H27.446827V-4.633846H25.08375ZM21.24375-.184615H25.231444V5.686154L21.24375-.184615ZM29.441107-4.633846ZM33.354955 1.938461C32.764184 1.938461 32.228799 2.067692 31.748799 2.326154 31.268799 2.596923 30.88726 2.978461 30.604184 3.470769 30.321108 3.963078 30.17957 4.547693 30.17957 5.224616 30.17957 5.901539 30.321108 6.486154 30.604184 6.978461 30.88726 7.470769 31.268799 7.846154 31.748799 8.104616 32.228799 8.375385 32.770338 8.510769 33.373414 8.510769 33.964185 8.510769 34.493413 8.375385 34.961107 8.104616 35.441106 7.846154 35.822649 7.470769 36.105726 6.978461 36.3888 6.486154 36.53034 5.901539 36.53034 5.224616 36.53034 4.547693 36.3888 3.963078 36.105726 3.470769 35.822649 2.978461 35.441106 2.596923 34.961107 2.326154 34.481107 2.067692 33.945726 1.938461 33.354955 1.938461ZM32.653417-4.633846 39.94572 8.289231H42.253416L34.961107-4.633846H32.653417ZM33.354955 3.581539C33.711877 3.581539 34.01957 3.716924 34.27803 3.987692 34.53649 4.270769 34.66572 4.683077 34.66572 5.224616 34.66572 5.766154 34.53649 6.178462 34.27803 6.461538 34.031877 6.744615 33.724184 6.886154 33.354955 6.886154 32.98572 6.886154 32.671876 6.744615 32.413415 6.461538 32.167264 6.178462 32.044187 5.766154 32.044187 5.224616 32.044187 4.683077 32.167264 4.270769 32.413415 3.987692 32.671876 3.716924 32.98572 3.581539 33.354955 3.581539ZM41.62572-4.855385C41.034955-4.855385 40.49957-4.726154 40.01957-4.467693 39.53957-4.196924 39.15803-3.815384 38.874956-3.323076 38.591878-2.830769 38.450338-2.246154 38.450338-1.569231 38.450338-.892308 38.591878-.313847 38.874956 .166154 39.15803 .658462 39.53957 1.033846 40.01957 1.292308 40.49957 1.563077 41.041109 1.698462 41.644186 1.698462 42.234956 1.698462 42.764184 1.563077 43.231878 1.292308 43.711877 1.033846 44.093416 .658462 44.37649 .166154 44.65957-.313847 44.801107-.892308 44.801107-1.569231 44.801107-2.246154 44.65957-2.830769 44.37649-3.323076 44.093416-3.815384 43.711877-4.196924 43.231878-4.467693 42.764184-4.726154 42.228799-4.855385 41.62572-4.855385ZM41.62572-3.212307C41.994955-3.212307 42.302648-3.076923 42.5488-2.806154 42.807264-2.523077 42.936494-2.110769 42.936494-1.569231 42.936494-1.027692 42.807264-.615384 42.5488-.332308 42.302648-.049231 41.994955 .092308 41.62572 .092308 41.256494 .092308 40.942647-.049231 40.684186-.332308 40.43803-.615384 40.314954-1.027692 40.314954-1.569231 40.314954-2.110769 40.43803-2.523077 40.684186-2.806154 40.942647-3.076923 41.256494-3.212307 41.62572-3.212307Z" fill="#0035bc"/>
<text xml:space="preserve" transform="matrix(1 0 -0 1 -8.477539 8.51077)" font-size="18.461539" font-family="Unnamed"><tspan y="4.633846" x="7.536058 17.920674 29.441107">24%</tspan></text>
</svg>
