<?xml version="1.0" encoding="UTF-8" standalone="no"?>
<svg
   xmlns:dc="http://purl.org/dc/elements/1.1/"
   xmlns:cc="http://creativecommons.org/ns#"
   xmlns:rdf="http://www.w3.org/1999/02/22-rdf-syntax-ns#"
   xmlns:svg="http://www.w3.org/2000/svg"
   xmlns="http://www.w3.org/2000/svg"
   viewBox="0 0 330.66666 261.33334"
   height="261.33334"
   width="330.66666"
   xml:space="preserve"
   id="svg2"
   version="1.1"><metadata
     id="metadata8"><rdf:RDF><cc:Work
         rdf:about=""><dc:format>image/svg+xml</dc:format><dc:type
           rdf:resource="http://purl.org/dc/dcmitype/StillImage" /></cc:Work></rdf:RDF></metadata><defs
     id="defs6"><clipPath
       id="clipPath18"
       clipPathUnits="userSpaceOnUse"><path
         id="path16"
         d="M 0,0 H 248 V 196 H 0 Z" /></clipPath><mask
       id="mask20"
       height="1"
       width="1"
       y="0"
       x="0"
       maskUnits="userSpaceOnUse"><g
         id="g28"><g
           id="g26"
           clip-path="url(#clipPath18)"><g
             id="g24"><path
               id="path22"
               style="fill:#000000;fill-opacity:1;fill-rule:nonzero;stroke:none"
               d="M 0,196 H 248 V 0 H 0 Z" /></g></g></g></mask><clipPath
       id="clipPath36"
       clipPathUnits="userSpaceOnUse"><path
         id="path34"
         d="M 0,0 H 248 V 196 H 0 Z" /></clipPath></defs><g
     transform="matrix(1.3333333,0,0,-1.3333333,0,261.33333)"
     id="g10"><g
       id="g12"><g
         id="g14" /><g
         mask="url(#mask20)"
         id="g30"><g
           id="g32" /><g
           id="g144"><g
             id="g142"
             clip-path="url(#clipPath36)"><g
               id="g40"
               transform="translate(64.437012,0.021484)"><path
                 id="path38"
                 style="fill:#0035bc;fill-opacity:1;fill-rule:nonzero;stroke:none"
                 d="m 55.971039,4.6e-5 c 30.911949,0 55.971041,25.003837 55.971041,55.847629 0,30.843792 -25.059092,55.847635 -55.971041,55.847635 C 25.059088,111.69531 0,86.691467 0,55.847675 0,25.003883 25.059088,4.6e-5 55.971039,4.6e-5 Z" /></g><g
               id="g44"
               transform="translate(96.651367,36.198242)"><path
                 id="path42"
                 style="fill:#ffffff;fill-opacity:1;fill-rule:nonzero;stroke:none"
                 d="M 51.314754,43.221916 C 52.041649,42.645947 41.58717,28.609369 27.968552,11.884943 25.060966,8.386467 22.281643,5.015934 19.737505,1.901436 L 18.604404,0.557564 17.385801,1.794804 C 6.696146,12.716877 -0.487291,20.844461 0.025813,21.356434 0.538916,21.868406 8.577512,14.615458 19.609234,4.013367 L 17.278898,3.88538 25.381641,13.996807 c 13.618618,16.724426 25.270352,29.801079 25.933113,29.225109 z" /></g><g
               id="g48"
               transform="translate(190.61816,74.633789)"><path
                 id="path46"
                 style="fill:#0035bc;fill-opacity:1;fill-rule:nonzero;stroke:none"
                 d="M 9.300014,3.719204 C 7.632427,9.585552 0,9.030895 0,9.030895 L 0.213806,4.935089 C 4.617944,5.703047 7.375888,0.540667 7.375888,0.540667 Z" /></g><g
               id="g52"
               transform="translate(28.498535,62.305664)"><path
                 id="path50"
                 style="fill:#b8daff;fill-opacity:1;fill-rule:nonzero;stroke:none"
                 d="M 9.300014,3.760489 C 7.632427,9.626837 0,9.050892 0,9.050892 L 0.213806,4.976439 C 4.617944,5.723064 7.375888,0.560663 7.375888,0.560663 Z" /></g><g
               id="g56"
               transform="translate(124.59863,144.52539)"><path
                 id="path54"
                 style="fill:#b8daff;fill-opacity:1;fill-rule:nonzero;stroke:none"
                 d="m 2.501375,2.687815 c 8.851035,-2.687854 14.3669,7.530254 14.3669,7.530254 L 11.48068,13.268555 C 8.851025,7.018228 0,7.74353 0,7.74353 Z" /></g><g
               id="g60"
               transform="translate(73.288086,130.29687)"><path
                 id="path58"
                 style="fill:#0035bc;fill-opacity:1;fill-rule:nonzero;stroke:none"
                 d="M 4.617906,5.930664 C 0.491699,5.504021 0,0.341646 0,0.341646 L 2.757916,3.23e-4 c 0,3.0505 3.762747,4.266434 3.762747,4.266434 z" /></g><g
               id="g64"
               transform="translate(242.67676,96.99707)"><path
                 id="path62"
                 style="fill:#b8daff;fill-opacity:1;fill-rule:nonzero;stroke:none"
                 d="M 5.259325,1.450904 C 5.857945,5.546681 0.983463,7.295898 0.983463,7.295898 L 0,4.714724 C 2.928966,3.968098 3.206897,3.31e-4 3.206897,3.31e-4 Z" /></g><g
               id="g68"
               transform="translate(96.677246,188.7041)"><path
                 id="path66"
                 style="fill:#0035bc;fill-opacity:1;fill-rule:nonzero;stroke:none"
                 d="m 5.28066,1.450838 c 0.62,4.095778 -4.275862,5.84506 -4.275862,5.84506 L 0,4.714658 C 2.950345,3.968032 3.206897,2.66e-4 3.206897,2.66e-4 Z" /></g><g
               id="g72"
               transform="translate(-0.003906,116.11133)"><path
                 id="path70"
                 style="fill:#0035bc;fill-opacity:1;fill-rule:nonzero;stroke:none"
                 d="M 0.0465,7.978141 C -0.701776,1.578489 7.828568,-7.1e-5 7.828568,-7.1e-5 L 9.367881,4.266364 C 4.258225,4.714339 3.50997,10.666016 3.50997,10.666016 Z" /></g><g
               id="g76"
               transform="translate(188.18066,147.08496)"><path
                 id="path74"
                 style="fill:#0035bc;fill-opacity:1;fill-rule:nonzero;stroke:none"
                 d="M 1.624848,0.235068 C 5.751055,4.14e-4 7.076547,5.034807 7.076547,5.034807 L 4.425533,5.802734 C 3.933809,2.794898 0,2.176304 0,2.176304 Z" /></g><g
               id="g80"
               transform="translate(205.5835,129.99023)"><path
                 id="path78"
                 style="fill:#b8daff;fill-opacity:1;fill-rule:nonzero;stroke:none"
                 d="M 6.841406,0.519917 C 5.735157,0.180858 4.572335,0.064826 3.420703,0.178595 2.269073,0.067089 1.106696,0.183077 0,0.519917 1.111667,0.830967 2.270466,0.93935 3.420703,0.839887 4.570947,0.94172 5.730174,0.833297 6.841406,0.519917 Z" /></g><g
               id="g84"
               transform="translate(215.67529,132.85742)"><path
                 id="path82"
                 style="fill:#b8daff;fill-opacity:1;fill-rule:nonzero;stroke:none"
                 d="M 0.383959,6.932617 C 0.722847,5.806662 0.839035,4.625677 0.726036,3.455462 0.837878,2.292291 0.721685,1.118529 0.383959,-3.39e-4 0.046233,1.118529 -0.069959,2.292291 0.041883,3.455462 c -0.112999,1.170215 0.003189,2.3512 0.342076,3.477155 z" /></g><g
               id="g88"
               transform="translate(219.99316,130.20019)"><path
                 id="path86"
                 style="fill:#b8daff;fill-opacity:1;fill-rule:nonzero;stroke:none"
                 d="M 0,0.522862 C 1.106696,0.859702 2.269073,0.97569 3.420702,0.864185 4.572332,0.97569 5.734676,0.859702 6.841372,0.522862 5.734676,0.186022 4.572332,0.070035 3.420702,0.18154 2.269073,0.070035 1.106696,0.186022 0,0.522862 Z" /></g><g
               id="g92"
               transform="translate(215.91016,121.44434)"><path
                 id="path90"
                 style="fill:#b8daff;fill-opacity:1;fill-rule:nonzero;stroke:none"
                 d="M 0.384544,-4.71e-4 C 0.046818,1.118397 -0.069374,2.29216 0.042467,3.455331 -0.071588,4.618505 0.044646,5.792695 0.384544,6.911133 0.724441,5.792695 0.840643,4.618505 0.726588,3.455331 0.838429,2.29216 0.72227,1.118397 0.384544,-4.71e-4 Z" /></g><g
               id="g96"
               transform="translate(219.36572,125.19531)"><path
                 id="path94"
                 style="fill:#b8daff;fill-opacity:1;fill-rule:nonzero;stroke:none"
                 d="M 2.466101,0.216889 C 2.316446,0.110228 1.653682,0.664857 0.990924,1.47548 0.328165,2.286102 -0.120794,3.011394 0.028862,3.139386 0.178517,3.26738 0.819901,2.691375 1.504039,1.902084 2.188177,1.112794 2.594377,0.344882 2.466101,0.216889 Z" /></g><g
               id="g100"
               transform="translate(218.96631,133.17578)"><path
                 id="path98"
                 style="fill:#b8daff;fill-opacity:1;fill-rule:nonzero;stroke:none"
                 d="M 2.544617,2.773884 C 2.672893,2.645891 2.202524,1.963214 1.518386,1.259253 0.834249,0.555291 0.150117,0.107357 0.021841,0.23535 -0.106435,0.363343 0.342522,1.024601 1.048039,1.728563 1.753556,2.432525 2.416341,2.901877 2.544617,2.773884 Z" /></g><g
               id="g104"
               transform="translate(211.16309,133.02051)"><path
                 id="path102"
                 style="fill:#b8daff;fill-opacity:1;fill-rule:nonzero;stroke:none"
                 d="M 2.416379,0.241867 C 2.288103,0.113873 1.668095,0.433869 1.005337,0.988506 0.342578,1.543142 -0.106369,2.097771 0.021907,2.247096 0.150183,2.396421 0.770158,2.055094 1.432917,1.500457 2.095675,0.94582 2.630172,0.391192 2.416379,0.241867 Z" /></g><g
               id="g108"
               transform="translate(211.02637,125.87988)"><path
                 id="path106"
                 style="fill:#b8daff;fill-opacity:1;fill-rule:nonzero;stroke:none"
                 d="M 2.338935,2.753076 C 2.467211,2.625083 2.061007,1.963825 1.441007,1.259863 0.821007,0.555902 0.179653,0.107902 0.029998,0.235895 c -0.149656,0.127994 0.277927,0.789296 0.897927,1.471926 0.62,0.682629 1.261354,1.173248 1.41101,1.045255 z" /></g><g
               id="g112"
               transform="translate(19.348145,148.92676)"><path
                 id="path110"
                 style="fill:#0035bc;fill-opacity:1;fill-rule:nonzero;stroke:none"
                 d="M 6.841406,0.526487 C 5.73471,0.189648 4.572332,0.07366 3.420703,0.185165 2.269071,0.071396 1.106249,0.187428 0,0.526487 1.106249,0.865546 2.269071,0.981579 3.420703,0.86781 4.572332,0.979315 5.73471,0.863327 6.841406,0.526487 Z" /></g><g
               id="g116"
               transform="translate(29.360352,151.86426)"><path
                 id="path114"
                 style="fill:#0035bc;fill-opacity:1;fill-rule:nonzero;stroke:none"
                 d="M 0.356958,6.932617 C 0.694684,5.813749 0.810876,4.639987 0.699035,3.476815 0.812034,2.306601 0.695846,1.125617 0.356958,-3.39e-4 0.044393,1.130588 -0.06418,2.307963 0.036282,3.476815 -0.063451,4.638615 0.04513,5.808841 0.356958,6.932617 Z" /></g><g
               id="g120"
               transform="translate(33.672363,149.2373)"><path
                 id="path118"
                 style="fill:#0035bc;fill-opacity:1;fill-rule:nonzero;stroke:none"
                 d="M 0,0.493284 C 1.106696,0.830124 2.26904,0.946112 3.42067,0.834607 4.572302,0.948376 5.735123,0.832343 6.841372,0.493284 5.73014,0.179904 4.570914,0.071481 3.42067,0.173315 2.270433,0.073851 1.111666,0.182235 0,0.493284 Z" /></g><g
               id="g124"
               transform="translate(29.675293,140.45117)"><path
                 id="path122"
                 style="fill:#0035bc;fill-opacity:1;fill-rule:nonzero;stroke:none"
                 d="M 0.383959,-3.39e-4 C 0.045072,1.125617 -0.071116,2.306601 0.041883,3.476815 -0.069959,4.639987 0.046233,5.813749 0.383959,6.932617 0.695787,5.808841 0.804369,4.638615 0.704636,3.476815 0.805098,2.307963 0.696525,1.130588 0.383959,-3.39e-4 Z" /></g><g
               id="g128"
               transform="translate(33.114258,144.21875)"><path
                 id="path126"
                 style="fill:#0035bc;fill-opacity:1;fill-rule:nonzero;stroke:none"
                 d="M 2.460794,0.220983 C 2.311138,0.09299 1.669754,0.647663 0.985616,1.458285 0.301478,2.268908 -0.104722,3.015532 0.023554,3.122193 0.151829,3.228853 0.83594,2.695513 1.498699,1.88489 2.161457,1.074267 2.610449,0.327644 2.460794,0.220983 Z" /></g><g
               id="g132"
               transform="translate(32.709961,152.18359)"><path
                 id="path130"
                 style="fill:#0035bc;fill-opacity:1;fill-rule:nonzero;stroke:none"
                 d="M 2.544584,2.773128 C 2.67286,2.645134 2.223903,1.983876 1.518386,1.279914 0.812869,0.575953 0.150117,0.106666 0.021841,0.234659 -0.106435,0.362652 0.342522,1.045263 1.048039,1.749225 1.753556,2.453187 2.416308,2.901121 2.544584,2.773128 Z" /></g><g
               id="g136"
               transform="translate(24.997559,152.04199)"><path
                 id="path134"
                 style="fill:#0035bc;fill-opacity:1;fill-rule:nonzero;stroke:none"
                 d="m 2.41082,0.248718 c 0,-0.149325 -0.748284,0.192047 -1.411042,0.725351 C 0.337019,1.507374 -0.090549,2.104667 0.016348,2.23266 0.123244,2.360653 0.764631,2.040657 1.42739,1.486021 2.090149,0.931384 2.581854,0.376711 2.41082,0.248718 Z" /></g><g
               id="g140"
               transform="translate(24.796875,144.91016)"><path
                 id="path138"
                 style="fill:#0035bc;fill-opacity:1;fill-rule:nonzero;stroke:none"
                 d="M 2.312147,2.730159 C 2.440423,2.602166 2.055599,1.940863 1.41422,1.258234 0.772841,0.575604 0.152854,0.106317 0.024578,0.212978 -0.103698,0.319639 0.281126,1.002294 0.922505,1.706256 1.563884,2.410218 2.183871,2.858152 2.312147,2.730159 Z" /></g></g></g></g></g></g></svg>